<svg xmlns="http://www.w3.org/2000/svg" xmlns:xlink="http://www.w3.org/1999/xlink" viewBox="0 0 286.28 269.48"><defs><style>.cls-1,.cls-20,.cls-30{fill:none;}.cls-1{clip-rule:evenodd;}.cls-2,.cls-25{fill:#ffb001;}.cls-10,.cls-11,.cls-12,.cls-13,.cls-14,.cls-15,.cls-17,.cls-2,.cls-20,.cls-4,.cls-5,.cls-7,.cls-8,.cls-9{fill-rule:evenodd;}.cls-3{clip-path:url(#clip-path);}.cls-4,.cls-6{fill:#e7baa8;}.cls-19,.cls-5{fill:#d68982;}.cls-18,.cls-7{fill:#6c0d0f;}.cls-8{fill:#59080c;}.cls-21,.cls-9{fill:#c62026;}.cls-10{fill:#b21924;}.cls-11{fill:#e6b5a3;}.cls-12{fill:#ec6000;}.cls-13{fill:#f0d3c8;}.cls-14{fill:#8e1a20;}.cls-15,.cls-26{fill:#fff;}.cls-16,.cls-17{fill:#f4dcb1;}.cls-20,.cls-30{stroke:#fff;stroke-miterlimit:10;}.cls-22{fill:#9b0b1d;}.cls-23{fill:#d82e3a;}.cls-24{fill:#e84d60;}.cls-27{fill:#c6c6c4;}.cls-28{fill:#eaeae8;}.cls-29{fill:#d1d3d4;}</style><clipPath id="clip-path" transform="translate(0 -13.4)"><path class="cls-1" d="M146.18,239.54A99.74,99.74,0,0,0,245.73,140C245.73,85.17,201,0,146.18,0S46.63,85.17,46.63,140A99.74,99.74,0,0,0,146.18,239.54Z"/></clipPath></defs><title>Asset 2</title><g id="Layer_2" data-name="Layer 2"><g id="OBJECTS"><path class="cls-2" d="M146.18,239.54A99.55,99.55,0,1,0,46.63,140,99.74,99.74,0,0,0,146.18,239.54Z" transform="translate(0 -13.4)"/><g class="cls-3"><path class="cls-4" d="M238.09,248.85s-18-62.13-24.16-71.75-19.11-14.5-26.08-.46S226,254.46,226,254.46Z" transform="translate(0 -13.4)"/><path class="cls-5" d="M192.2,174.82a17.36,17.36,0,0,1,5.49-6.77c-3.68.65-7.19,3.25-9.84,8.58-7,14,38.14,77.82,38.14,77.82l4.25-2C227.86,249.12,185.42,188.47,192.2,174.82Z" transform="translate(0 -13.4)"/><path class="cls-6" d="M223.86,241.75a12.05,12.05,0,0,0-2.91,4.84,23.85,23.85,0,0,0-1.26,8.94c.39,3.56,2.11,14,4.52,15.76s1.62-7.36,1.49-9.23a7.12,7.12,0,0,1,.48-3.19s3.43,20.77,5.49,22S233,270,232.75,267c0,0,3.45,15.51,5,15.84,3.1.68-.24-16.65-.24-16.65s3.57,12.9,5.67,12.25S241.55,264,241.55,264s3.55,8.07,5.62,8.34-4.09-17.25-5.36-19.83-4.12-9.81-6.33-12.85C234,237.55,227.6,238.64,223.86,241.75Z" transform="translate(0 -13.4)"/><path class="cls-7" d="M104.33,43.81s-18.08,26.73,2,64.18c10.52,19.65,7.35-7.47,3.29,3.17s27,16.61,27,16.61h27.25l11.87-7.08s37.88-50.16,9-85.63c-12.47-15.32-26.34-11.67-26.34-11.67C120.86-.28,104.33,43.81,104.33,43.81Z" transform="translate(0 -13.4)"/><path class="cls-8" d="M188.06,68.67c-1.94,1.86.73,12.66-3.87,20s-11.95,11.81-14,5.81,5.28-18.4,8.31-24.81S175.84,58,170,55.19,161,40,161,40c4.82,5.4,14.07,7.77,9.95,4.16s-11-13.56-3.51-10.29,24.57,28,21.18,19.12S165.19,16.46,156,28.08s-35.1,12.47-24.57,14.52,24.33-11,19.85-3.15-23,13.8-32.07,16.58-5.69,12.22-3,23.4-5.81,17.63-10.29,11.46-2.54-21.42-5.57-14.65c-1.15,2.58-1,9.35-.33,16.76a84.31,84.31,0,0,0,6.31,15,41.52,41.52,0,0,0,2.94,4.83,5.36,5.36,0,0,1,.35-1.66c3.62-9.49,6.53,11.07-.35,1.66-.11,2.15,1.22,4.09,3.33,5.81l16.43-.5c4.12-.12,46-1.94,47.19-1.94a18,18,0,0,0,3-.53A121.46,121.46,0,0,0,190.43,93C192.77,78.34,190,66.81,188.06,68.67Z" transform="translate(0 -13.4)"/><path class="cls-9" d="M106.63,103.13s-41,78.55-35.38,85.66c0,0,7.92,18.2,27.35,20.56S106.63,103.13,106.63,103.13Z" transform="translate(0 -13.4)"/><path class="cls-10" d="M85.42,166.52s-9.59,8.33-9.59,16.56a19,19,0,0,0,16.78,18.44c10.53,1.33,19.6-7.81,17.57-21.05S85.42,166.52,85.42,166.52Z" transform="translate(0 -13.4)"/><path class="cls-11" d="M146,63.51h0A11.56,11.56,0,0,1,157.55,75V97.12A11.56,11.56,0,0,1,146,108.65h0a11.57,11.57,0,0,1-11.53-11.53V75A11.57,11.57,0,0,1,146,63.51Z" transform="translate(0 -13.4)"/><path class="cls-9" d="M185.73,103.13s41,78.55,35.38,85.66c0,0-7.92,18.2-27.35,20.56S185.73,103.13,185.73,103.13Z" transform="translate(0 -13.4)"/><path class="cls-10" d="M186.27,162.67,182.46,169c.36,22.25,3,41.33,11.31,40.33a32.26,32.26,0,0,0,6.27-1.41Z" transform="translate(0 -13.4)"/><path class="cls-9" d="M192,204.75c-.3-9.93-5.95-41.15-5.95-41.15,3.2-13.56-.33-60.46-.34-60.47-8.3-1.69-16-2.85-19.73-4.19s-5.52-2-6.43-.95c0,0-4.87,7-13.38,7s-13.38-7-13.38-7c-.91-1-2.71-.39-6.43.95s-11.43,2.5-19.73,4.19c0,0-3.54,46.91-.34,60.47,0,0-5.65,31.23-5.95,41.15s-8.67,25.9-7.63,27.84c0,0,19.58,13.88,53.47,12.85,33.89,1,53.47-12.85,53.47-12.85C200.69,230.65,192.32,214.68,192,204.75Z" transform="translate(0 -13.4)"/><path class="cls-10" d="M143.44,100.9s8.41,12.22,10.59,24.93.64,23.48,1.59,24.57,16.93-1.21,20.8-6.54S164,104.41,157.68,98.12,140.66,96.35,143.44,100.9Z" transform="translate(0 -13.4)"/><path class="cls-10" d="M105.76,222.95c0-2.66,26.57-92.27,27.61-95.18s4.19-18.48,4.19-18.48L119.31,121S108.66,146.45,107,149.6c-.21.4-.87,1.39-1.85,2.82a64.91,64.91,0,0,0,1.18,11.18s-5.65,31.23-5.95,41.15-8.67,25.9-7.63,27.84c0,0,7.57,5.36,21.43,9.17C110.42,237.82,105.76,225.61,105.76,222.95Z" transform="translate(0 -13.4)"/><path class="cls-10" d="M147.28,114.34c17.43-1.09,17.53-12.62,17.53-12.62s-.56-1.65-1.38-3.67c-2-.66-3.2-.81-3.87-.05,0,0-4.87,7-13.38,7s-13.38-7-13.38-7c-.91-1-2.71-.39-6.43.95a34.61,34.61,0,0,1-3.71,1h0C124.26,106.68,129.85,115.43,147.28,114.34Z" transform="translate(0 -13.4)"/><path class="cls-2" d="M145.37,98s8.41,12.22,10.59,24.93.64,23.48,1.59,24.57,16.93-1.21,20.8-6.54-12.42-39.46-18.74-45.75S142.59,93.45,145.37,98Z" transform="translate(0 -13.4)"/><path class="cls-12" d="M159.82,147.5c-1-1.09.59-11.86-1.59-24.57S147.64,98,147.64,98c-1.65-2.7,1.44-5.38,5.54-5.82-5.12-.52-9.76,2.64-7.81,5.82,0,0,8.41,12.22,10.59,24.93s.64,23.48,1.59,24.57c.23.26,1.3.32,2.85.21A1,1,0,0,1,159.82,147.5Z" transform="translate(0 -13.4)"/><path class="cls-12" d="M164.69,102.43H153.91s-2.28,1.15-4.55,2.32a77.57,77.57,0,0,1,4,8.81l.92-.25C164.18,110.35,164.69,102.45,164.69,102.43Z" transform="translate(0 -13.4)"/><path class="cls-2" d="M162.5,93.73a8.75,8.75,0,0,0-2-6.18L146,90.92l-14.48-3.37a8.75,8.75,0,0,0-2,6.18s-2.41,4.72-2.31,8,7.18,9.44,18.8,9.44,18.71-6.17,18.8-9.44S162.5,93.73,162.5,93.73Z" transform="translate(0 -13.4)"/><path class="cls-12" d="M160.85,88c-.21-.3-.36-.47-.36-.47L146,90.92l-14.48-3.37a9.51,9.51,0,0,0-1.64,3c3.22,2.37,9.76,6.36,16.68,5.72A19.61,19.61,0,0,0,160.85,88Z" transform="translate(0 -13.4)"/><path class="cls-4" d="M146,94.52c-12.95,0-23.75-16-23.75-28.59V49.17A23.82,23.82,0,0,1,146,25.42h0a23.82,23.82,0,0,1,23.75,23.75v16.4C169.76,79.39,160.34,94.52,146,94.52Z" transform="translate(0 -13.4)"/><path class="cls-5" d="M169.76,49.17a23.58,23.58,0,0,0-4.48-13.83,20.7,20.7,0,0,0-4.72.52c-13.31,2.85-12.82-.57-22.41,5.25s-13,8.87-13.49,11.75-2.4,11-2.4,11,18.23-4.38,27.49-11.53,10.15-8.73,10.15-8.73,2.89,16.06,9.86,22.09c0,0,0-.06,0-.09Z" transform="translate(0 -13.4)"/><path class="cls-13" d="M145.37,60.67s-.61,6.76-3,8.64.06,2.54,3,.91S148.52,63.84,145.37,60.67Z" transform="translate(0 -13.4)"/><path class="cls-7" d="M175.59,56.06l-2.19,5.46s-3.63-.37-3.63,4.13A64.36,64.36,0,0,1,161,40a92.1,92.1,0,0,1-38.78,23.8s-1.2-3.9-3.68-2.57c0,0-3.37-19.5,2-27.65s11.7-16.31,23-15.25S176.56,29.34,175.59,56.06Z" transform="translate(0 -13.4)"/><path class="cls-8" d="M173.4,61.53l1.35-3.38a23.91,23.91,0,0,0-4.72-3C164.22,52.41,161,40,161,40a64.36,64.36,0,0,0,8.71,25.64C169.76,61.16,173.4,61.53,173.4,61.53Z" transform="translate(0 -13.4)"/><path class="cls-8" d="M161,40c4.82,5.4,14.07,7.77,9.95,4.16s-11-13.56-3.51-10.29a16.7,16.7,0,0,1,3.9,2.71,33.84,33.84,0,0,0-10.05-11.32,6.73,6.73,0,0,0-5.34,2.8c-9.2,11.62-35.1,12.47-24.57,14.52s24.33-11,19.85-3.15-23,13.8-32.07,16.58a11.69,11.69,0,0,0-1.22.45c.29,2.86.62,4.75.62,4.75,2.48-1.33,3.68,2.57,3.68,2.57A92.1,92.1,0,0,0,161,40Z" transform="translate(0 -13.4)"/><path class="cls-14" d="M129.39,55.8a1,1,0,0,0,1.27,1.53,6.52,6.52,0,0,1,5.77-1.18,1,1,0,0,0,.58-1.91A8.61,8.61,0,0,0,129.39,55.8Z" transform="translate(0 -13.4)"/><path class="cls-12" d="M129.9,103.13a9.77,9.77,0,0,1,1-4.71s2.24,2.78,14,2.54,17-7.14,12.1-4.36-15.1,3.57-20.06,1.94a16.44,16.44,0,0,1-7.43-4.81s-2.41,4.72-2.31,8,6.74,9,17.69,9.4C139.79,110.65,130.17,105.2,129.9,103.13Z" transform="translate(0 -13.4)"/><path class="cls-15" d="M146,67.78a118.93,118.93,0,0,0-22.53,2.28,2.18,2.18,0,0,0-1.77,2.6c4.82,20.19,21.71,22.7,24,23a2.45,2.45,0,0,0,.53,0c2.33-.25,19.22-2.76,24-23a2.18,2.18,0,0,0-1.77-2.6A118.93,118.93,0,0,0,146,67.78Z" transform="translate(0 -13.4)"/><path class="cls-16" d="M145,91.74c.25-.76,7.16-7,5.89-8.84s-8.53,3.76-9.65,5.28a34.93,34.93,0,0,0-1.87,3.09l.85-4.61c.15-.81,5.49-8,4.17-9.55s-8.18,7.21-8.84,8.43a37.66,37.66,0,0,0-1.66,5.56,28.65,28.65,0,0,0,9.63,4.13C144.15,93.77,144.86,92.14,145,91.74Z" transform="translate(0 -13.4)"/><path class="cls-16" d="M143.89,95.31c.87.18,1.53.27,1.86.3a2.45,2.45,0,0,0,.53,0,26.54,26.54,0,0,0,7.22-2C152.27,92.37,146.45,94.25,143.89,95.31Z" transform="translate(0 -13.4)"/><path class="cls-16" d="M133.8,91c.08-1.16.26-3.86.42-4.5.2-.81,3.15-8,2.13-9.09s-6.1,6.91-6.86,8.74c-.08.18-.22.46-.41.81A27.22,27.22,0,0,0,133.8,91Z" transform="translate(0 -13.4)"/><path class="cls-17" d="M135.09,68.34c-5.08.51-9.22,1.24-11.6,1.72a2.18,2.18,0,0,0-1.77,2.6,30.85,30.85,0,0,0,8.17,15.19c-1.11-4.9-2.13-10-2.11-12.32C127.85,70.63,134.89,68.4,135.09,68.34Z" transform="translate(0 -13.4)"/><ellipse class="cls-18" cx="134.14" cy="49.67" rx="2.27" ry="3.04"/><path class="cls-5" d="M129.62,61.57h9A6.65,6.65,0,0,0,129.62,61.57Z" transform="translate(0 -13.4)"/><path class="cls-7" d="M162.64,55.8a1,1,0,0,1-1.27,1.53,6.52,6.52,0,0,0-5.77-1.18,1,1,0,0,1-.58-1.91A8.61,8.61,0,0,1,162.64,55.8Z" transform="translate(0 -13.4)"/><ellipse class="cls-18" cx="157.89" cy="49.67" rx="2.27" ry="3.04"/><path class="cls-5" d="M162.41,61.57h-9A6.65,6.65,0,0,1,162.41,61.57Z" transform="translate(0 -13.4)"/><path class="cls-19" d="M127.79,94.41S125.42,83.53,122,83.53c-1.93,0,1.06,8.52,0,13.55-.93,4.39-.47,9.85,2,10.16S127.79,94.41,127.79,94.41Z" transform="translate(0 -13.4)"/><path class="cls-4" d="M121.31,109.95S85.1,163.54,81.65,174.43s1.09,24,16.34,20.33,35.38-79.11,35.38-79.11Z" transform="translate(0 -13.4)"/><path class="cls-5" d="M133.37,115.66a4.86,4.86,0,0,0,1.37-.64,11.33,11.33,0,0,0,2.87-2.9c-2.92,3.68-9.49,2.09-9.49,2.09l3.51,1.76s-23,64.69-33,71.22A13.69,13.69,0,0,1,81,185.72c1.57,6.64,7,11.42,16.94,9,15.25-3.63,35.38-79.11,35.38-79.11Z" transform="translate(0 -13.4)"/><path class="cls-6" d="M121.1,109c.88,6.12,10.1,8.5,13.64,6,5.55-3.89,5-10.29,5.39-11.36a20.11,20.11,0,0,1,3.15-4.17c.36-.25,9.45-3.81,8.59-5.89s-10,1.32-10.92,2a55.78,55.78,0,0,0-4.37,4.47l4-2.59s2.34-5.23,2.59-6,7.16-7,5.89-8.84-8.53,3.76-9.65,5.28-3.51,6.15-3.51,6.15l1.32-1.32s1-5.54,1.17-6.35,5.49-8,4.17-9.55-8.18,7.21-8.84,8.43a44.58,44.58,0,0,0-1.78,6s.25-4.22.46-5,3.15-8,2.13-9.09-6.1,6.91-6.86,8.74S119.6,98.57,121.1,109Z" transform="translate(0 -13.4)"/></g><path class="cls-20" d="M119,71.87" transform="translate(0 -13.4)"/><path class="cls-21" d="M82.56,85.54,80,82.6a18.32,18.32,0,0,1-4.23,7.85l.95.95.95.95a18.32,18.32,0,0,1,7.85-4.23Z" transform="translate(0 -13.4)"/><ellipse class="cls-21" cx="82.74" cy="85.36" rx="1.02" ry="3.9" transform="translate(-36.13 70.11) rotate(-45)"/><ellipse class="cls-22" cx="82.74" cy="85.36" rx="0.63" ry="2.42" transform="translate(-36.13 70.11) rotate(-45)"/><path class="cls-21" d="M50.49,117.61l2.58,2.94a18.32,18.32,0,0,1,4.23-7.85l-.95-.95-.95-.95A18.32,18.32,0,0,1,47.56,115Z" transform="translate(0 -13.4)"/><ellipse class="cls-21" cx="50.31" cy="117.79" rx="1.02" ry="3.9" transform="translate(-68.55 56.68) rotate(-45)"/><ellipse class="cls-22" cx="50.31" cy="117.79" rx="0.63" ry="2.42" transform="translate(-68.55 56.68) rotate(-45)"/><path class="cls-22" d="M82.56,117.61,85.5,115a18.32,18.32,0,0,1-7.85-4.23l-.95.95-.95.95A18.32,18.32,0,0,1,80,120.55Z" transform="translate(0 -13.4)"/><ellipse class="cls-21" cx="82.74" cy="117.79" rx="3.9" ry="1.02" transform="translate(-59.06 79.61) rotate(-45)"/><ellipse class="cls-22" cx="82.74" cy="117.79" rx="2.42" ry="0.63" transform="translate(-59.06 79.61) rotate(-45)"/><path class="cls-21" d="M50.49,85.54l-2.94,2.58a18.32,18.32,0,0,1,7.85,4.23l.95-.95.95-.95a18.32,18.32,0,0,1-4.23-7.85Z" transform="translate(0 -13.4)"/><ellipse class="cls-21" cx="50.31" cy="85.36" rx="3.9" ry="1.02" transform="translate(-45.62 47.18) rotate(-45)"/><ellipse class="cls-22" cx="50.31" cy="85.36" rx="2.42" ry="0.63" transform="translate(-45.62 47.18) rotate(-45)"/><path class="cls-21" d="M66.53,118.73h-.15l.06-2.68h.1l.7,0,.13,2.67Zm-2.06-.12-1-.14.47-2.63.81.12Zm4.82-.1-.43-2.64.8-.15.57,2.61ZM61.62,118l-.92-.3.9-2.52.78.26Zm10.47-.21-.87-2.53L72,115l1,2.48ZM58.93,117q-.44-.22-.86-.46l1.32-2.32.72.38Zm15.82-.32-1.28-2.35.7-.41,1.41,2.27Q75.17,116.4,74.75,116.64Zm-18.3-1.18q-.39-.28-.77-.59l1.69-2.07.65.5ZM77.17,115l-1.67-2.09c.21-.17.42-.35.63-.53l1.78,2Q77.54,114.74,77.17,115Zm-22.91-1.48q-.34-.35-.66-.71l2-1.76q.27.31.55.6Zm25-.51-2-1.79q.27-.3.53-.62l2.09,1.68Q79.6,112.7,79.28,113.06Zm-26.86-1.73q-.28-.4-.53-.81l2.28-1.4q.21.35.44.68ZM81,110.75l-2.26-1.44q.22-.34.42-.7l2.34,1.3C81.36,110.2,81.2,110.48,81,110.75ZM51,108.81q-.2-.44-.38-.89l2.49-1q.15.38.32.75Zm31.4-.64-2.47-1q.16-.38.29-.76l2.52.89Q82.55,107.73,82.37,108.17ZM50,106.09c-.08-.31-.16-.63-.23-.94l2.62-.55c.06.27.12.53.19.79Zm33.28-.68-2.61-.6q.09-.4.16-.8l2.64.45Q83.36,104.94,83.25,105.41Zm-33.8-2.17q0-.48-.07-1l2.67-.1c0,.27,0,.54.05.81Zm34.2-.7L81,102.39q0-.41,0-.82v-.37l2.68-.06q0,.21,0,.43Q83.68,102.06,83.66,102.54Zm-31.57-2-2.67-.19q0-.48.09-1l2.66.34Q52.12,100.12,52.09,100.54Zm28.78-.95q-.06-.41-.13-.8l2.63-.51q.09.47.16,1Zm-28.4-1.47-2.6-.64q.12-.47.26-.93l2.56.78Q52.56,97.72,52.47,98.12Zm27.87-.92q-.12-.39-.27-.77l2.5-1q.17.45.32.91ZM53.25,95.8l-2.45-1.07q.19-.45.41-.88l2.39,1.21Q53.41,95.43,53.25,95.8Zm26.15-.86q-.19-.36-.39-.71l2.3-1.36q.25.42.47.85Zm-25-1.29-2.24-1.47q.27-.41.55-.79L54.88,93Q54.64,93.31,54.41,93.65Zm23.69-.78q-.25-.33-.51-.64l2-1.73q.31.37.6.75ZM55.92,91.72,54,89.9q.33-.35.68-.69l1.86,1.93Q56.2,91.42,55.92,91.72ZM76.47,91q-.3-.28-.61-.54l1.72-2q.37.31.72.64Zm-18.73-1L56.11,88q.38-.29.78-.57l1.5,2.21Zm16.82-.55-.69-.43,1.36-2.31q.42.25.82.51Zm-14.76-.77-1.25-2.37q.43-.22.87-.43l1.11,2.43Zm12.62-.41L71.65,88l.95-2.5.89.37ZM62,87.81l-.83-2.55.93-.27.68,2.59Zm8.05-.27-.79-.18.51-2.63.95.21Zm-5.67-.29L64,84.6l1-.11.23,2.67Zm3.26-.11-.82,0,.06-2.68,1,0Z" transform="translate(0 -13.4)"/><circle class="cls-21" cx="66.53" cy="88.18" r="15.1"/><path class="cls-22" d="M67.65,86.53l.22.66a18.62,18.62,0,0,0,.21,2.09l1.25-2.54A15.12,15.12,0,0,0,67.65,86.53Z" transform="translate(0 -13.4)"/><path class="cls-22" d="M77.59,91.32A15.09,15.09,0,0,1,54,110.05,15.09,15.09,0,1,0,77.59,91.32Z" transform="translate(0 -13.4)"/><circle class="cls-23" cx="66.53" cy="88.18" r="11.3"/><circle class="cls-24" cx="66.53" cy="88.18" r="3.43"/><circle class="cls-24" cx="70.03" cy="83.15" r="1.7"/><circle class="cls-24" cx="61.22" cy="93.54" r="1.7"/><path class="cls-24" d="M59.09,102.86a2.23,2.23,0,0,1-2.23-2.23,8.84,8.84,0,0,1,8.83-8.83,2.23,2.23,0,1,1,0,4.46,4.38,4.38,0,0,0-4.37,4.37A2.23,2.23,0,0,1,59.09,102.86Z" transform="translate(0 -13.4)"/><path class="cls-24" d="M67.36,111.35a2.23,2.23,0,1,1,0-4.46,4.38,4.38,0,0,0,4.37-4.37,2.23,2.23,0,1,1,4.46,0A8.84,8.84,0,0,1,67.36,111.35Z" transform="translate(0 -13.4)"/><path class="cls-21" d="M66.53,78.9l-3.9-.25a18.32,18.32,0,0,1,2.56,8.54h2.68a18.32,18.32,0,0,1,2.56-8.54Z" transform="translate(0 -13.4)"/><ellipse class="cls-21" cx="66.53" cy="65.25" rx="3.9" ry="1.02"/><ellipse class="cls-22" cx="66.53" cy="65.25" rx="2.42" ry="0.63"/><path class="cls-22" d="M66.53,124.25l3.9.25A18.32,18.32,0,0,1,67.87,116H65.19a18.32,18.32,0,0,1-2.56,8.54Z" transform="translate(0 -13.4)"/><ellipse class="cls-21" cx="66.53" cy="111.11" rx="3.9" ry="1.02"/><ellipse class="cls-22" cx="66.53" cy="111.11" rx="2.42" ry="0.63"/><path class="cls-22" d="M89.2,101.58l.25-3.9a18.32,18.32,0,0,1-8.54,2.56v2.68a18.32,18.32,0,0,1,8.54,2.56Z" transform="translate(0 -13.4)"/><ellipse class="cls-21" cx="89.46" cy="88.18" rx="1.02" ry="3.9"/><ellipse class="cls-22" cx="89.46" cy="88.18" rx="0.63" ry="2.42"/><path class="cls-21" d="M43.85,101.58l-.25,3.9a18.32,18.32,0,0,1,8.54-2.56v-2.68a18.32,18.32,0,0,1-8.54-2.56Z" transform="translate(0 -13.4)"/><ellipse class="cls-21" cx="43.6" cy="88.18" rx="1.02" ry="3.9"/><ellipse class="cls-22" cx="43.6" cy="88.18" rx="0.63" ry="2.42"/><path class="cls-22" d="M78.12,91.91a16,16,0,0,0-1.95,2s1.18-.39,2.86-.78A15,15,0,0,0,78.12,91.91Z" transform="translate(0 -13.4)"/><path class="cls-21" d="M248.75,78.48l-3.28-3.74a23.33,23.33,0,0,1-5.38,10l1.2,1.2,1.2,1.2a23.33,23.33,0,0,1,10-5.38Z" transform="translate(0 -13.4)"/><ellipse class="cls-21" cx="248.97" cy="78.25" rx="1.29" ry="4.97" transform="translate(17.59 185.57) rotate(-45)"/><ellipse class="cls-22" cx="248.97" cy="78.25" rx="0.8" ry="3.08" transform="translate(17.59 185.57) rotate(-45)"/><path class="cls-21" d="M207.92,119.31l3.28,3.74a23.33,23.33,0,0,1,5.38-10l-1.2-1.2-1.2-1.2a23.33,23.33,0,0,1-10,5.38Z" transform="translate(0 -13.4)"/><ellipse class="cls-21" cx="207.69" cy="119.54" rx="1.29" ry="4.97" transform="translate(-23.7 168.47) rotate(-45)"/><ellipse class="cls-22" cx="207.69" cy="119.54" rx="0.8" ry="3.08" transform="translate(-23.7 168.47) rotate(-45)"/><path class="cls-22" d="M248.75,119.31l3.74-3.28a23.33,23.33,0,0,1-10-5.38l-1.2,1.2-1.2,1.2a23.33,23.33,0,0,1,5.38,10Z" transform="translate(0 -13.4)"/><ellipse class="cls-21" cx="248.97" cy="119.54" rx="4.97" ry="1.29" transform="translate(-11.6 197.66) rotate(-45)"/><ellipse class="cls-22" cx="248.97" cy="119.54" rx="3.08" ry="0.8" transform="translate(-11.6 197.66) rotate(-45)"/><path class="cls-21" d="M207.92,78.48l-3.74,3.28a23.33,23.33,0,0,1,10,5.38l1.2-1.2,1.2-1.2a23.33,23.33,0,0,1-5.38-10Z" transform="translate(0 -13.4)"/><ellipse class="cls-21" cx="207.69" cy="78.25" rx="4.97" ry="1.29" transform="translate(5.5 156.37) rotate(-45)"/><ellipse class="cls-22" cx="207.69" cy="78.25" rx="3.08" ry="0.8" transform="translate(5.5 156.38) rotate(-45)"/><path class="cls-21" d="M228.33,120.73h-.2l.07-3.41h.12l.9,0,.16,3.4Zm-2.63-.16q-.62-.07-1.22-.18l.6-3.35q.51.09,1,.15Zm6.13-.12-.55-3.36,1-.2.73,3.33Q232.45,120.35,231.84,120.45Zm-9.75-.63q-.59-.18-1.17-.38l1.15-3.21q.49.18,1,.33Zm13.33-.27-1.1-3.22q.49-.17,1-.36l1.28,3.16Q236,119.36,235.42,119.56Zm-16.77-1.08q-.55-.27-1.09-.58l1.69-3q.45.26.92.49Zm20.14-.41-1.64-3q.46-.25.9-.52l1.8,2.89Q239.34,117.77,238.79,118.07Zm-23.3-1.5q-.5-.36-1-.75l2.16-2.64q.4.33.82.64Zm26.38-.53-2.12-2.67c.27-.22.54-.44.8-.67l2.26,2.55Q242.35,115.65,241.87,116Zm-29.17-1.88q-.43-.44-.84-.91l2.57-2.24q.34.39.7.76Zm31.86-.64L242,111.23q.35-.39.68-.8l2.66,2.14Q245,113.05,244.56,113.51Zm-34.2-2.2q-.35-.51-.67-1l2.91-1.78q.27.44.57.87Zm36.43-.73-2.87-1.83q.28-.44.53-.89l3,1.66C247.22,109.87,247,110.23,246.79,110.57Zm-38.27-2.47q-.26-.56-.49-1.13l3.16-1.26q.19.48.41,1Zm40-.81L245.35,106q.2-.48.37-1l3.21,1.13Q248.73,106.73,248.5,107.29Zm-41.24-2.65c-.11-.4-.21-.8-.29-1.2l3.33-.7c.07.34.15.67.24,1Zm42.37-.86L246.3,103q.11-.5.2-1l3.36.57Q249.76,103.18,249.62,103.78Zm-43-2.77q-.06-.61-.08-1.23l3.41-.13c0,.35,0,.69.07,1Zm43.55-.89-3.4-.19q0-.52,0-1v-.46l3.41-.08q0,.27,0,.54Q250.17,99.51,250.14,100.12Zm-40.19-2.55-3.4-.24q0-.61.12-1.22l3.38.43C210,96.87,210,97.22,209.94,97.57Zm36.65-1.21q-.07-.52-.17-1l3.34-.65q.12.6.2,1.21Zm-36.16-1.87-3.31-.81q.15-.6.33-1.19l3.26,1Q210.55,94,210.43,94.49Zm35.48-1.17q-.16-.5-.34-1l3.18-1.21q.22.57.41,1.16Zm-34.49-1.78-3.12-1.36q.25-.57.52-1.12l3,1.54Q211.63,91.06,211.42,91.54Zm33.3-1.1q-.24-.46-.5-.91l2.93-1.73q.31.53.59,1.08ZM212.9,88.8l-2.85-1.87q.34-.52.7-1l2.74,2Q213.19,88.36,212.9,88.8Zm30.16-1q-.31-.42-.65-.81l2.6-2.2q.4.47.77,1Zm-28.24-1.47L212.33,84q.42-.45.86-.88l2.36,2.45Q215.18,86,214.83,86.35ZM241,85.49q-.38-.36-.78-.69l2.2-2.61q.47.4.92.82Zm-23.85-1.24-2.07-2.71q.49-.37,1-.72L218,83.64Q217.54,83.93,217.13,84.25Zm21.41-.7q-.43-.29-.88-.55l1.73-2.94q.53.31,1,.66Zm-18.79-1-1.59-3q.54-.29,1.1-.54l1.42,3.1Q220.21,82.33,219.75,82.57ZM235.82,82q-.48-.21-1-.4l1.21-3.19q.58.22,1.14.47Zm-13.2-.68-1.05-3.24q.58-.19,1.18-.35l.87,3.3Q223.11,81.2,222.62,81.36ZM232.87,81q-.5-.13-1-.23l.65-3.35q.61.12,1.2.27Zm-7.22-.37-.49-3.37q.61-.09,1.22-.14l.3,3.39Q226.16,80.58,225.65,80.65Zm4.15-.14-1-.05.08-3.41q.62,0,1.22.06Z" transform="translate(0 -13.4)"/><circle class="cls-21" cx="228.33" cy="85.49" r="19.22"/><path class="cls-22" d="M229.76,79.74l.28.83a23.71,23.71,0,0,0,.27,2.67L231.89,80A19.28,19.28,0,0,0,229.76,79.74Z" transform="translate(0 -13.4)"/><path class="cls-22" d="M242.41,85.83a19.21,19.21,0,0,1-30,23.85,19.22,19.22,0,1,0,30-23.85Z" transform="translate(0 -13.4)"/><circle class="cls-23" cx="228.33" cy="85.49" r="14.39"/><circle class="cls-24" cx="228.33" cy="85.49" r="4.37"/><circle class="cls-24" cx="232.79" cy="79.09" r="2.16"/><circle class="cls-24" cx="221.57" cy="92.32" r="2.16"/><path class="cls-24" d="M218.86,100.53A2.84,2.84,0,0,1,216,97.69a11.26,11.26,0,0,1,11.25-11.25,2.84,2.84,0,0,1,0,5.68,5.57,5.57,0,0,0-5.57,5.57A2.84,2.84,0,0,1,218.86,100.53Z" transform="translate(0 -13.4)"/><path class="cls-24" d="M229.4,111.34a2.84,2.84,0,1,1,0-5.68,5.57,5.57,0,0,0,5.57-5.57,2.84,2.84,0,1,1,5.68,0A11.26,11.26,0,0,1,229.4,111.34Z" transform="translate(0 -13.4)"/><path class="cls-21" d="M228.33,70l-5-.32a23.33,23.33,0,0,1,3.27,10.88H230A23.33,23.33,0,0,1,233.3,69.7Z" transform="translate(0 -13.4)"/><ellipse class="cls-21" cx="228.33" cy="56.3" rx="4.97" ry="1.29"/><ellipse class="cls-22" cx="228.33" cy="56.3" rx="3.08" ry="0.8"/><path class="cls-22" d="M228.33,127.76l5,.32A23.33,23.33,0,0,1,230,117.21h-3.41a23.33,23.33,0,0,1-3.27,10.88Z" transform="translate(0 -13.4)"/><ellipse class="cls-21" cx="228.33" cy="114.69" rx="4.97" ry="1.29"/><ellipse class="cls-22" cx="228.33" cy="114.69" rx="3.08" ry="0.8"/><path class="cls-22" d="M257.2,98.89l.32-5a23.33,23.33,0,0,1-10.88,3.27v3.41a23.33,23.33,0,0,1,10.88,3.27Z" transform="translate(0 -13.4)"/><ellipse class="cls-21" cx="257.53" cy="85.49" rx="1.29" ry="4.97"/><ellipse class="cls-22" cx="257.53" cy="85.49" rx="0.8" ry="3.08"/><path class="cls-21" d="M199.46,98.89l-.32,5A23.33,23.33,0,0,1,210,100.6V97.19a23.33,23.33,0,0,1-10.88-3.27Z" transform="translate(0 -13.4)"/><ellipse class="cls-21" cx="199.14" cy="85.49" rx="1.29" ry="4.97"/><ellipse class="cls-22" cx="199.14" cy="85.49" rx="0.8" ry="3.08"/><path class="cls-22" d="M243.09,86.58a20.35,20.35,0,0,0-2.48,2.52s1.51-.5,3.64-1A19.08,19.08,0,0,0,243.09,86.58Z" transform="translate(0 -13.4)"/><path class="cls-21" d="M227.66,29.37l-1.78-2A12.65,12.65,0,0,1,223,32.77l.65.65.65.65a12.65,12.65,0,0,1,5.42-2.92Z" transform="translate(0 -13.4)"/><ellipse class="cls-21" cx="227.78" cy="29.25" rx="0.7" ry="2.7" transform="translate(46.03 156.23) rotate(-45)"/><ellipse class="cls-22" cx="227.78" cy="29.25" rx="0.43" ry="1.67" transform="translate(46.03 156.23) rotate(-45)"/><path class="cls-21" d="M205.51,51.52l1.78,2a12.65,12.65,0,0,1,2.92-5.42l-.65-.65-.65-.65a12.65,12.65,0,0,1-5.42,2.92Z" transform="translate(0 -13.4)"/><ellipse class="cls-21" cx="205.38" cy="51.64" rx="0.7" ry="2.7" transform="translate(23.64 146.95) rotate(-45)"/><ellipse class="cls-22" cx="205.38" cy="51.64" rx="0.43" ry="1.67" transform="translate(23.64 146.96) rotate(-45)"/><path class="cls-22" d="M227.66,51.52l2-1.78a12.65,12.65,0,0,1-5.42-2.92l-.65.65-.65.65a12.65,12.65,0,0,1,2.92,5.42Z" transform="translate(0 -13.4)"/><ellipse class="cls-21" cx="227.78" cy="51.64" rx="2.7" ry="0.7" transform="translate(30.2 162.79) rotate(-45)"/><ellipse class="cls-22" cx="227.78" cy="51.64" rx="1.67" ry="0.43" transform="translate(30.2 162.79) rotate(-45)"/><path class="cls-21" d="M205.51,29.37l-2,1.78a12.65,12.65,0,0,1,5.42,2.92l.65-.65.65-.65a12.65,12.65,0,0,1-2.92-5.42Z" transform="translate(0 -13.4)"/><ellipse class="cls-21" cx="205.38" cy="29.25" rx="2.7" ry="0.7" transform="translate(39.48 140.4) rotate(-45)"/><ellipse class="cls-22" cx="205.38" cy="29.25" rx="1.67" ry="0.43" transform="translate(39.47 140.4) rotate(-45)"/><path class="cls-21" d="M216.58,52.29h-.11l0-1.85h.55l.09,1.85Zm-1.43-.08-.66-.1.33-1.82.56.08Zm3.33-.07-.3-1.82.55-.11.4,1.8Zm-5.29-.34-.63-.21.62-1.74.54.18Zm7.23-.15-.6-1.75.53-.2.7,1.71Zm-9.09-.59-.59-.31.92-1.61.5.26Zm10.93-.22-.89-1.62.49-.28,1,1.57ZM209.62,50l-.53-.41,1.17-1.43.45.34Zm14.31-.29-1.15-1.45.43-.36,1.23,1.38Zm-15.82-1-.45-.49L209,47l.38.41Zm17.28-.35L224,47.14l.37-.43,1.44,1.16Zm-18.55-1.19q-.19-.27-.36-.56l1.58-1,.31.47Zm19.76-.4-1.56-1q.15-.24.29-.48l1.61.9C226.83,46.4,226.71,46.59,226.6,46.78Zm-20.76-1.34q-.14-.3-.26-.61l1.72-.68q.1.26.22.52ZM227.52,45l-1.71-.71q.11-.26.2-.53l1.74.61Q227.65,44.7,227.52,45Zm-22.37-1.44c-.06-.21-.11-.43-.16-.65l1.81-.38c0,.18.08.37.13.55Zm23-.47-1.8-.41q.06-.27.11-.55l1.82.31Q228.21,42.77,228.13,43.09Zm-23.34-1.5q0-.33,0-.67l1.85-.07c0,.19,0,.37,0,.56Zm23.62-.48-1.85-.1q0-.28,0-.56v-.25l1.85,0q0,.15,0,.29Q228.43,40.78,228.41,41.11Zm-21.8-1.39-1.84-.13q0-.33.07-.66l1.83.23Q206.63,39.44,206.61,39.73Zm19.88-.66q0-.28-.09-.56l1.81-.35q.06.33.11.66Zm-19.62-1-1.8-.44q.08-.33.18-.64l1.77.54Q206.94,37.78,206.87,38.06Zm19.25-.63q-.08-.27-.19-.53l1.73-.66q.12.31.22.63Zm-18.71-1-1.69-.74q.13-.31.28-.61l1.65.83Q207.52,36.2,207.41,36.46Zm18.06-.59q-.13-.25-.27-.49l1.59-.94q.17.29.32.58ZM208.21,35l-1.55-1q.18-.28.38-.55l1.49,1.1Zm16.36-.54-.35-.44,1.41-1.19.42.52Zm-15.32-.79-1.35-1.26.47-.48,1.28,1.33Zm14.19-.47L223,32.8l1.19-1.41.5.44Zm-12.94-.67L209.38,31l.54-.39,1,1.53Zm11.61-.38-.48-.3.94-1.59.57.36Zm-10.19-.53L211.07,30l.6-.29.77,1.68Zm8.71-.29-.52-.21.66-1.73.62.25Zm-7.16-.37-.57-1.76.64-.19.47,1.79Zm5.56-.18-.55-.12.35-1.81.65.15Zm-3.92-.2-.27-1.83.66-.08.16,1.84Zm2.25-.07-.57,0,0-1.85.66,0Z" transform="translate(0 -13.4)"/><circle class="cls-21" cx="216.58" cy="27.05" r="10.43"/><path class="cls-22" d="M217.36,30.06l.15.45a12.87,12.87,0,0,0,.14,1.45l.86-1.75A10.46,10.46,0,0,0,217.36,30.06Z" transform="translate(0 -13.4)"/><path class="cls-22" d="M224.22,33.36A10.42,10.42,0,0,1,208,46.3a10.42,10.42,0,1,0,16.27-12.94Z" transform="translate(0 -13.4)"/><circle class="cls-23" cx="216.58" cy="27.05" r="7.81"/><circle class="cls-24" cx="216.58" cy="27.05" r="2.37"/><circle class="cls-24" cx="219" cy="23.57" r="1.17"/><circle class="cls-24" cx="212.91" cy="30.75" r="1.17"/><path class="cls-24" d="M211.44,41.33a1.54,1.54,0,0,1-1.54-1.54,6.11,6.11,0,0,1,6.1-6.1,1.54,1.54,0,0,1,0,3.08,3,3,0,0,0-3,3A1.54,1.54,0,0,1,211.44,41.33Z" transform="translate(0 -13.4)"/><path class="cls-24" d="M217.16,47.2a1.54,1.54,0,0,1,0-3.08,3,3,0,0,0,3-3,1.54,1.54,0,0,1,3.08,0A6.11,6.11,0,0,1,217.16,47.2Z" transform="translate(0 -13.4)"/><path class="cls-21" d="M216.58,24.78l-2.7-.18a12.65,12.65,0,0,1,1.77,5.9h1.85a12.65,12.65,0,0,1,1.77-5.9Z" transform="translate(0 -13.4)"/><ellipse class="cls-21" cx="216.58" cy="11.21" rx="2.7" ry="0.7"/><ellipse class="cls-22" cx="216.58" cy="11.21" rx="1.67" ry="0.43"/><path class="cls-22" d="M216.58,56.11l2.7.18a12.65,12.65,0,0,1-1.77-5.9h-1.85a12.65,12.65,0,0,1-1.77,5.9Z" transform="translate(0 -13.4)"/><ellipse class="cls-21" cx="216.58" cy="42.88" rx="2.7" ry="0.7"/><ellipse class="cls-22" cx="216.58" cy="42.88" rx="1.67" ry="0.43"/><path class="cls-22" d="M232.24,40.45l.18-2.7a12.65,12.65,0,0,1-5.9,1.77v1.85a12.65,12.65,0,0,1,5.9,1.77Z" transform="translate(0 -13.4)"/><ellipse class="cls-21" cx="232.42" cy="27.05" rx="0.7" ry="2.7"/><ellipse class="cls-22" cx="232.42" cy="27.05" rx="0.43" ry="1.67"/><path class="cls-21" d="M200.92,40.45l-.18,2.7a12.65,12.65,0,0,1,5.9-1.77V39.52a12.65,12.65,0,0,1-5.9-1.77Z" transform="translate(0 -13.4)"/><ellipse class="cls-21" cx="200.75" cy="27.05" rx="0.7" ry="2.7"/><ellipse class="cls-22" cx="200.75" cy="27.05" rx="0.43" ry="1.67"/><path class="cls-22" d="M224.59,33.77a11,11,0,0,0-1.35,1.37s.82-.27,2-.54A10.34,10.34,0,0,0,224.59,33.77Z" transform="translate(0 -13.4)"/><circle class="cls-25" cx="26.64" cy="178.88" r="24.57"/><path class="cls-26" d="M33.86,170.1H19.41v-7a1,1,0,0,1,1-1h12.5a1,1,0,0,1,1,1Z" transform="translate(0 -13.4)"/><rect class="cls-26" x="19.41" y="156.7" width="14.45" height="1.48"/><rect class="cls-27" x="19.41" y="156.7" width="14.45" height="0.32"/><rect class="cls-28" x="20.32" y="156.7" width="0.42" height="0.32"/><rect class="cls-28" x="23.37" y="156.7" width="0.42" height="0.32"/><rect class="cls-28" x="26.42" y="156.7" width="0.42" height="0.32"/><rect class="cls-28" x="29.47" y="156.7" width="0.42" height="0.32"/><rect class="cls-28" x="32.52" y="156.7" width="0.42" height="0.32"/><path class="cls-26" d="M37.61,175.35l-4.47-2.5v-1.26h-13v1.26l-4.47,2.5a3.64,3.64,0,0,0-1.86,3.18v27.2a1.92,1.92,0,0,0,1.92,1.92H37.55a1.92,1.92,0,0,0,1.92-1.92v-27.2A3.64,3.64,0,0,0,37.61,175.35Z" transform="translate(0 -13.4)"/><rect class="cls-29" x="20.13" y="158.19" width="13.02" height="1.26"/><rect class="cls-21" x="13.8" y="169.34" width="25.67" height="16.69"/><rect class="cls-18" x="13.8" y="169.34" width="25.67" height="4.78"/><circle class="cls-21" cx="36.2" cy="188.4" r="1.23"/><rect class="cls-26" x="16.61" y="176.67" width="10.76" height="1.66"/><rect class="cls-26" x="16.61" y="179.6" width="10.76" height="1.66"/><polyline class="cls-30" points="28.01 145.28 35.98 137.31 75.58 137.31"/><circle class="cls-25" cx="42.58" cy="20.3" r="20.3"/><path class="cls-26" d="M53.38,32a6.45,6.45,0,0,0,0-9.09h0a6.45,6.45,0,0,0-9.09,0L39,28.2l9.09,9.09Z" transform="translate(0 -13.4)"/><path class="cls-26" d="M31.79,35.4a6.45,6.45,0,0,0,0,9.09h0a6.45,6.45,0,0,0,9.09,0l5.3-5.3L37.09,30.1Z" transform="translate(0 -13.4)"/><rect class="cls-21" x="41.24" y="27.26" width="2.69" height="12.86" transform="translate(-11.35 26.58) rotate(-45)"/><polyline class="cls-30" points="45.32 43.59 51.78 50.04 90.47 50.04"/><circle class="cls-25" cx="261.72" cy="189.76" r="24.57"/><polygon class="cls-26" points="234.47 215.51 234.72 214.03 244.33 204.43 244.94 205.04 234.47 215.51"/><path class="cls-18" d="M245,214.5h0a20.2,20.2,0,0,0-3.95,5.59l-.09.19,1.54,1.54.19-.09a20.17,20.17,0,0,0,5.59-3.95h0Z" transform="translate(0 -13.4)"/><rect class="cls-26" x="252.18" y="189.25" width="11.16" height="31.5" transform="translate(220.45 -135.62) rotate(45)"/><rect class="cls-25" x="244.73" y="205.49" width="14.7" height="10.38" transform="translate(-75.14 226.56) rotate(-45)"/><rect class="cls-26" x="264.02" y="179.11" width="8.25" height="31.03" transform="translate(216.16 -146) rotate(45)"/><path class="cls-26" d="M283.92,188.46l-9.61-9.61a1,1,0,0,1,0-1.4h0a1,1,0,0,1,1.4,0l9.61,9.61a1,1,0,0,1,0,1.4h0A1,1,0,0,1,283.92,188.46Z" transform="translate(0 -13.4)"/><rect class="cls-18" x="253.15" y="202.45" width="10.38" height="3.94" transform="translate(220.21 -136.2) rotate(45)"/><rect class="cls-18" x="242.46" y="215.87" width="7.02" height="1.86" transform="translate(225.34 -123.83) rotate(45)"/><path class="cls-26" d="M276.42,201.39l-15-15a1,1,0,0,1,0-1.4h0a1,1,0,0,1,1.4,0l15,15a1,1,0,0,1,0,1.4h0A1,1,0,0,1,276.42,201.39Z" transform="translate(0 -13.4)"/><rect class="cls-26" x="249.12" y="210.65" width="6.96" height="0.25" transform="translate(223.03 -130.28) rotate(45)"/><rect class="cls-26" x="247.81" y="216.42" width="3.27" height="0.26" transform="translate(226.17 -126.36) rotate(45)"/><rect class="cls-26" x="248.93" y="215.3" width="3.27" height="0.26" transform="translate(225.71 -127.47) rotate(45)"/><rect class="cls-26" x="250.04" y="214.19" width="3.27" height="0.26" transform="translate(225.26 -128.59) rotate(45)"/><rect class="cls-26" x="251.16" y="213.07" width="3.27" height="0.26" transform="translate(224.8 -129.7) rotate(45)"/><rect class="cls-26" x="254.7" y="205.07" width="6.96" height="0.26" transform="translate(220.72 -135.86) rotate(45)"/><rect class="cls-26" x="253.39" y="210.84" width="3.27" height="0.26" transform="translate(223.87 -131.93) rotate(45)"/><rect class="cls-26" x="254.5" y="209.73" width="3.27" height="0.26" transform="translate(223.4 -133.05) rotate(45)"/><rect class="cls-26" x="255.62" y="208.61" width="3.27" height="0.25" transform="translate(222.94 -134.17) rotate(45)"/><rect class="cls-26" x="256.74" y="207.49" width="3.27" height="0.26" transform="translate(222.48 -135.28) rotate(45)"/><rect class="cls-26" x="260.28" y="199.49" width="6.96" height="0.26" transform="translate(218.41 -141.44) rotate(45)"/><rect class="cls-26" x="258.97" y="205.26" width="3.27" height="0.26" transform="translate(221.56 -137.51) rotate(45)"/><rect class="cls-26" x="260.08" y="204.15" width="3.27" height="0.26" transform="translate(221.1 -138.63) rotate(45)"/><rect class="cls-26" x="261.2" y="203.03" width="3.27" height="0.25" transform="translate(220.64 -139.75) rotate(45)"/><rect class="cls-26" x="262.31" y="201.91" width="3.27" height="0.26" transform="translate(220.17 -140.86) rotate(45)"/><polyline class="cls-30" points="261.85 161.73 252.06 151.95 221.99 151.95"/><path class="cls-9" d="M31,115.32a7.62,7.62,0,0,0-5.4-2.22c-6.28,0-9,5.82-9,5.82s-2.7-5.82-9-5.82A7.59,7.59,0,0,0,0,120.72c0,10.3,16.61,19.76,16.61,19.76S33.22,131,33.22,120.72A7.61,7.61,0,0,0,31,115.32Z" transform="translate(0 -13.4)"/><polyline class="cls-30" points="33.86 116.98 39.84 122.96 81.78 122.96"/></g></g></svg>