<svg xmlns="http://www.w3.org/2000/svg" xmlns:xlink="http://www.w3.org/1999/xlink" viewBox="0 0 371 321.5"><defs><style>.cls-1,.cls-21,.cls-31{fill:none;}.cls-1{clip-rule:evenodd;}.cls-10,.cls-2,.cls-22{fill:#c62026;}.cls-2{opacity:0.05;}.cls-26,.cls-3{fill:#ffb001;}.cls-10,.cls-11,.cls-12,.cls-13,.cls-14,.cls-15,.cls-16,.cls-18,.cls-21,.cls-3,.cls-5,.cls-6,.cls-8,.cls-9{fill-rule:evenodd;}.cls-4{clip-path:url(#clip-path);}.cls-5,.cls-7{fill:#e7baa8;}.cls-20,.cls-6{fill:#d68982;}.cls-19,.cls-8{fill:#6c0d0f;}.cls-9{fill:#59080c;}.cls-11{fill:#b21924;}.cls-12{fill:#e6b5a3;}.cls-13{fill:#ec6000;}.cls-14{fill:#f0d3c8;}.cls-15{fill:#8e1a20;}.cls-16,.cls-27{fill:#fff;}.cls-17,.cls-18{fill:#f4dcb1;}.cls-21{stroke:#fff;}.cls-21,.cls-31{stroke-miterlimit:10;}.cls-23{fill:#9b0b1d;}.cls-24{fill:#d82e3a;}.cls-25{fill:#e84d60;}.cls-28{fill:#c6c6c4;}.cls-29{fill:#eaeae8;}.cls-30{fill:#d1d3d4;}.cls-31{stroke:#c1272d;}</style><clipPath id="clip-path"><path class="cls-1" d="M187.83,278.16a99.74,99.74,0,0,0,99.55-99.55c0-54.83-44.72-140-99.55-140s-99.55,85.17-99.55,140A99.74,99.74,0,0,0,187.83,278.16Z"/></clipPath></defs><title>Asset 2</title><g id="Layer_2" data-name="Layer 2"><g id="Layer_2-2" data-name="Layer 2"><circle class="cls-2" cx="107" cy="107" r="107"/><circle class="cls-2" cx="307" cy="251" r="64"/></g><g id="Layer_1-2" data-name="Layer 1"><path class="cls-3" d="M187.83,278.16a99.55,99.55,0,1,0-99.55-99.55A99.74,99.74,0,0,0,187.83,278.16Z"/><g class="cls-4"><path class="cls-5" d="M279.73,287.47s-18-62.13-24.16-71.75-19.11-14.5-26.08-.46,38.14,77.82,38.14,77.82Z"/><path class="cls-6" d="M233.84,213.44a17.36,17.36,0,0,1,5.49-6.77c-3.68.65-7.19,3.25-9.84,8.58-7,14,38.14,77.82,38.14,77.82l4.25-2C269.51,287.74,227.07,227.09,233.84,213.44Z"/><path class="cls-7" d="M265.5,280.37a12.05,12.05,0,0,0-2.91,4.84,23.85,23.85,0,0,0-1.26,8.94c.39,3.56,2.11,14,4.52,15.76s1.62-7.36,1.49-9.23a7.12,7.12,0,0,1,.48-3.19s3.43,20.77,5.49,22,1.3-10.83,1.09-13.8c0,0,3.45,15.51,5,15.84,3.1.68-.24-16.65-.24-16.65s3.57,12.9,5.67,12.25-1.63-14.49-1.63-14.49,3.55,8.07,5.62,8.34-4.09-17.25-5.36-19.82-4.12-9.81-6.33-12.85C275.63,276.17,269.24,277.26,265.5,280.37Z"/><path class="cls-8" d="M146,82.43s-18.08,26.73,2,64.18c10.52,19.65,7.35-7.47,3.29,3.17s27,16.61,27,16.61h27.25l11.87-7.08s37.88-50.16,9-85.63C213.95,58.36,200.07,62,200.07,62,162.51,38.34,146,82.43,146,82.43Z"/><path class="cls-9" d="M229.71,107.29c-1.94,1.86.73,12.66-3.87,20s-11.95,11.81-14,5.81,5.28-18.4,8.31-24.81-2.66-11.74-8.47-14.52-9-15.17-9-15.17c4.82,5.4,14.07,7.77,9.95,4.16s-11-13.56-3.51-10.29,24.57,28,21.18,19.12S206.83,55.08,197.63,66.7s-35.1,12.47-24.57,14.52,24.33-11,19.85-3.15-23,13.8-32.07,16.58-5.69,12.22-3,23.4-5.81,17.63-10.29,11.46S145,108.09,142,114.87c-1.15,2.58-1,9.35-.33,16.76a84.31,84.31,0,0,0,6.31,15,41.52,41.52,0,0,0,2.94,4.83,5.36,5.36,0,0,1,.35-1.66c3.62-9.49,6.53,11.07-.35,1.66-.11,2.15,1.22,4.09,3.33,5.81l16.43-.5c4.12-.12,46-1.94,47.19-1.94a18,18,0,0,0,3-.53,121.46,121.46,0,0,0,11.27-22.65C234.41,117,231.64,105.43,229.71,107.29Z"/><path class="cls-10" d="M148.28,141.75s-41,78.55-35.38,85.66c0,0,7.92,18.2,27.35,20.56S148.28,141.75,148.28,141.75Z"/><path class="cls-11" d="M127.07,205.14s-9.59,8.33-9.59,16.56a19,19,0,0,0,16.78,18.44c10.53,1.33,19.6-7.81,17.57-21.05S127.07,205.14,127.07,205.14Z"/><path class="cls-12" d="M187.67,102.13h0a11.56,11.56,0,0,1,11.53,11.53v22.08a11.56,11.56,0,0,1-11.53,11.53h0a11.57,11.57,0,0,1-11.53-11.53V113.66A11.57,11.57,0,0,1,187.67,102.13Z"/><path class="cls-10" d="M227.37,141.75s41,78.55,35.38,85.66c0,0-7.92,18.2-27.35,20.56S227.37,141.75,227.37,141.75Z"/><path class="cls-11" d="M227.91,201.29l-3.81,6.36c.36,22.25,3,41.33,11.31,40.33a32.26,32.26,0,0,0,6.27-1.41Z"/><path class="cls-10" d="M233.66,243.37c-.3-9.93-5.95-41.15-5.95-41.15,3.2-13.56-.33-60.46-.34-60.47-8.3-1.69-16-2.85-19.73-4.19s-5.52-2-6.43-.95c0,0-4.87,7-13.38,7s-13.38-7-13.38-7c-.91-1-2.71-.39-6.43.95s-11.43,2.5-19.73,4.19c0,0-3.54,46.91-.34,60.47,0,0-5.65,31.23-5.95,41.15s-8.67,25.9-7.63,27.84c0,0,19.58,13.88,53.47,12.85,33.89,1,53.47-12.85,53.47-12.85C242.34,269.27,234,253.3,233.66,243.37Z"/><path class="cls-11" d="M185.08,139.52s8.41,12.22,10.59,24.93.64,23.48,1.59,24.57,16.93-1.21,20.8-6.54S205.64,143,199.33,136.74,182.3,135,185.08,139.52Z"/><path class="cls-11" d="M147.4,261.57c0-2.66,26.57-92.27,27.61-95.18s4.19-18.48,4.19-18.48L161,159.66s-10.65,25.42-12.35,28.56c-.21.4-.87,1.39-1.85,2.82a64.91,64.91,0,0,0,1.18,11.18s-5.65,31.23-5.95,41.15-8.67,25.9-7.63,27.84c0,0,7.57,5.36,21.43,9.17C152.06,276.44,147.4,264.23,147.4,261.57Z"/><path class="cls-11" d="M188.92,153c17.43-1.09,17.53-12.62,17.53-12.62s-.56-1.65-1.38-3.67c-2-.66-3.2-.81-3.87-.05,0,0-4.87,7-13.38,7s-13.38-7-13.38-7c-.91-1-2.71-.39-6.43.95a34.61,34.61,0,0,1-3.71,1h0C165.91,145.3,171.49,154,188.92,153Z"/><path class="cls-3" d="M187,136.62s8.41,12.22,10.59,24.93.64,23.48,1.59,24.57,16.93-1.21,20.8-6.54-12.42-39.46-18.74-45.75S184.24,132.07,187,136.62Z"/><path class="cls-13" d="M201.47,186.12c-1-1.09.59-11.86-1.59-24.57s-10.59-24.93-10.59-24.93c-1.65-2.7,1.44-5.38,5.54-5.82-5.12-.52-9.76,2.64-7.81,5.82,0,0,8.41,12.22,10.59,24.93s.64,23.48,1.59,24.57c.23.26,1.3.32,2.85.21A1,1,0,0,1,201.47,186.12Z"/><path class="cls-13" d="M206.34,141.05H195.55s-2.28,1.15-4.55,2.32a77.57,77.57,0,0,1,4,8.81l.92-.25C205.83,149,206.34,141.07,206.34,141.05Z"/><path class="cls-3" d="M204.14,132.35a8.75,8.75,0,0,0-2-6.18l-14.48,3.37-14.48-3.37a8.75,8.75,0,0,0-2,6.18s-2.41,4.72-2.31,8,7.18,9.44,18.8,9.44,18.71-6.17,18.8-9.44S204.14,132.35,204.14,132.35Z"/><path class="cls-13" d="M202.5,126.64c-.21-.3-.36-.47-.36-.47l-14.48,3.37-14.48-3.37a9.51,9.51,0,0,0-1.64,3c3.22,2.37,9.76,6.36,16.68,5.72A19.61,19.61,0,0,0,202.5,126.64Z"/><path class="cls-5" d="M187.66,133.13c-12.95,0-23.75-16-23.75-28.59V87.79A23.82,23.82,0,0,1,187.66,64h0a23.82,23.82,0,0,1,23.75,23.75v16.4C211.41,118,202,133.13,187.66,133.13Z"/><path class="cls-6" d="M211.41,87.79A23.58,23.58,0,0,0,206.93,74a20.7,20.7,0,0,0-4.72.52c-13.31,2.85-12.82-.57-22.41,5.25s-13,8.87-13.49,11.75-2.4,11-2.4,11,18.23-4.38,27.49-11.53,10.15-8.73,10.15-8.73,2.89,16.06,9.86,22.09c0,0,0-.06,0-.09Z"/><path class="cls-14" d="M187,99.29s-.61,6.76-3,8.64.06,2.54,3,.91S190.17,102.46,187,99.29Z"/><path class="cls-8" d="M217.23,94.68,215,100.15s-3.63-.37-3.63,4.13a64.36,64.36,0,0,1-8.71-25.64,92.1,92.1,0,0,1-38.78,23.8s-1.2-3.9-3.68-2.57c0,0-3.37-19.5,2-27.65s11.7-16.31,23-15.25S218.21,68,217.23,94.68Z"/><path class="cls-9" d="M215,100.15l1.35-3.38a23.91,23.91,0,0,0-4.72-3c-5.81-2.78-9-15.17-9-15.17a64.36,64.36,0,0,0,8.71,25.64C211.41,99.78,215,100.15,215,100.15Z"/><path class="cls-9" d="M202.69,78.64c4.82,5.4,14.07,7.77,9.95,4.16s-11-13.56-3.51-10.29a16.7,16.7,0,0,1,3.9,2.71A33.84,33.84,0,0,0,203,63.9a6.73,6.73,0,0,0-5.34,2.8c-9.2,11.62-35.1,12.47-24.57,14.52s24.33-11,19.85-3.15-23,13.8-32.07,16.58a11.69,11.69,0,0,0-1.22.45c.29,2.86.62,4.75.62,4.75,2.48-1.33,3.68,2.57,3.68,2.57A92.1,92.1,0,0,0,202.69,78.64Z"/><path class="cls-15" d="M171,94.42A1,1,0,0,0,172.3,96a6.52,6.52,0,0,1,5.77-1.18,1,1,0,0,0,.58-1.91A8.61,8.61,0,0,0,171,94.42Z"/><path class="cls-13" d="M171.54,141.75a9.77,9.77,0,0,1,1-4.71s2.24,2.78,14,2.54,17-7.14,12.1-4.36-15.1,3.57-20.06,1.94a16.44,16.44,0,0,1-7.43-4.81s-2.41,4.72-2.31,8,6.74,9,17.69,9.4C181.44,149.27,171.82,143.81,171.54,141.75Z"/><path class="cls-16" d="M187.67,106.4a118.93,118.93,0,0,0-22.53,2.28,2.18,2.18,0,0,0-1.77,2.6c4.82,20.19,21.71,22.7,24,23a2.45,2.45,0,0,0,.53,0c2.33-.25,19.22-2.76,24-23a2.18,2.18,0,0,0-1.77-2.6A118.93,118.93,0,0,0,187.67,106.4Z"/><path class="cls-17" d="M186.64,130.36c.25-.76,7.16-7,5.89-8.84s-8.53,3.76-9.65,5.28a34.93,34.93,0,0,0-1.87,3.09l.85-4.61c.15-.81,5.49-8,4.17-9.55s-8.18,7.21-8.84,8.43a37.66,37.66,0,0,0-1.66,5.56,28.65,28.65,0,0,0,9.63,4.13C185.8,132.39,186.5,130.76,186.64,130.36Z"/><path class="cls-17" d="M185.53,133.93c.87.18,1.53.27,1.86.3a2.45,2.45,0,0,0,.53,0,26.54,26.54,0,0,0,7.22-2C193.92,131,188.1,132.87,185.53,133.93Z"/><path class="cls-17" d="M175.44,129.67c.08-1.16.26-3.86.42-4.5.2-.81,3.15-8,2.13-9.09s-6.1,6.91-6.86,8.74c-.08.18-.22.46-.41.81A27.22,27.22,0,0,0,175.44,129.67Z"/><path class="cls-18" d="M176.73,107c-5.08.51-9.22,1.24-11.6,1.72a2.18,2.18,0,0,0-1.77,2.6,30.85,30.85,0,0,0,8.17,15.19c-1.11-4.9-2.13-10-2.11-12.32C169.49,109.25,176.54,107,176.73,107Z"/><ellipse class="cls-19" cx="175.78" cy="101.69" rx="2.27" ry="3.04"/><path class="cls-6" d="M171.27,100.19h9A6.65,6.65,0,0,0,171.27,100.19Z"/><path class="cls-8" d="M204.28,94.42A1,1,0,0,1,203,96a6.52,6.52,0,0,0-5.77-1.18,1,1,0,0,1-.58-1.91A8.61,8.61,0,0,1,204.28,94.42Z"/><ellipse class="cls-19" cx="199.54" cy="101.69" rx="2.27" ry="3.04"/><path class="cls-6" d="M204.05,100.19h-9A6.65,6.65,0,0,1,204.05,100.19Z"/><path class="cls-20" d="M169.44,133s-2.37-10.88-5.81-10.88c-1.93,0,1.06,8.52,0,13.55-.93,4.39-.47,9.85,2,10.16S169.44,133,169.44,133Z"/><path class="cls-5" d="M163,148.57s-36.22,53.59-39.67,64.49,1.09,24,16.34,20.33S175,154.28,175,154.28Z"/><path class="cls-6" d="M175,154.28a4.86,4.86,0,0,0,1.37-.64,11.33,11.33,0,0,0,2.87-2.9c-2.92,3.68-9.49,2.09-9.49,2.09l3.51,1.76s-23,64.69-33,71.22a13.69,13.69,0,0,1-17.57-1.46c1.57,6.64,7,11.42,16.94,9,15.25-3.63,35.38-79.11,35.38-79.11Z"/><path class="cls-7" d="M162.74,147.62c.88,6.12,10.1,8.5,13.64,6,5.55-3.89,5-10.29,5.39-11.36a20.11,20.11,0,0,1,3.15-4.17c.36-.25,9.45-3.81,8.59-5.89s-10,1.32-10.92,2a55.78,55.78,0,0,0-4.37,4.47l4-2.59s2.34-5.23,2.59-6,7.16-7,5.89-8.84-8.53,3.76-9.65,5.28-3.51,6.15-3.51,6.15l1.32-1.32s1-5.54,1.17-6.35,5.49-8,4.17-9.55-8.18,7.21-8.84,8.43a44.58,44.58,0,0,0-1.78,6s.25-4.22.46-5,3.15-8,2.13-9.09-6.1,6.91-6.86,8.74S161.24,137.19,162.74,147.62Z"/></g><path class="cls-21" d="M160.68,110.49"/><path class="cls-22" d="M124.21,124.16l-2.58-2.94a18.32,18.32,0,0,1-4.23,7.85l.95.95.95.95a18.32,18.32,0,0,1,7.85-4.23Z"/><ellipse class="cls-22" cx="124.39" cy="123.98" rx="1.02" ry="3.9" transform="translate(-51.24 124.27) rotate(-45)"/><ellipse class="cls-23" cx="124.39" cy="123.98" rx="0.63" ry="2.42" transform="translate(-51.24 124.27) rotate(-45)"/><path class="cls-22" d="M92.14,156.23l2.58,2.94a18.32,18.32,0,0,1,4.23-7.85l-.95-.95-.95-.95a18.32,18.32,0,0,1-7.85,4.23Z"/><ellipse class="cls-22" cx="91.96" cy="156.41" rx="1.02" ry="3.9" transform="translate(-83.66 110.83) rotate(-45)"/><ellipse class="cls-23" cx="91.96" cy="156.41" rx="0.63" ry="2.42" transform="translate(-83.66 110.84) rotate(-45)"/><path class="cls-23" d="M124.21,156.23l2.94-2.58a18.32,18.32,0,0,1-7.85-4.23l-.95.95-.95.95a18.32,18.32,0,0,1,4.23,7.85Z"/><ellipse class="cls-22" cx="124.39" cy="156.41" rx="3.9" ry="1.02" transform="translate(-74.17 133.77) rotate(-45)"/><ellipse class="cls-23" cx="124.39" cy="156.41" rx="2.42" ry="0.63" transform="translate(-74.17 133.77) rotate(-45)"/><path class="cls-22" d="M92.14,124.16l-2.94,2.58A18.32,18.32,0,0,1,97.05,131L98,130l.95-.95a18.32,18.32,0,0,1-4.23-7.85Z"/><ellipse class="cls-22" cx="91.96" cy="123.98" rx="3.9" ry="1.02" transform="translate(-60.73 101.34) rotate(-45)"/><ellipse class="cls-23" cx="91.96" cy="123.98" rx="2.42" ry="0.63" transform="translate(-60.73 101.34) rotate(-45)"/><path class="cls-22" d="M108.17,157.35H108l.06-2.68h.1l.7,0,.13,2.67Zm-2.06-.12-1-.14.47-2.63.81.12Zm4.82-.1-.43-2.64.8-.15.57,2.61Zm-7.66-.49-.92-.3.9-2.52.78.26Zm10.47-.21-.87-2.53.77-.29,1,2.48Zm-13.17-.85q-.44-.22-.86-.46L101,152.8l.72.38Zm15.82-.32-1.28-2.35.7-.41,1.41,2.27Q116.82,155,116.39,155.26Zm-18.3-1.18q-.39-.28-.77-.59L99,151.41l.65.5Zm20.72-.42-1.67-2.09c.21-.17.42-.35.63-.53l1.78,2Q119.19,153.36,118.81,153.66ZM95.9,152.18q-.34-.35-.66-.71l2-1.76q.27.31.55.6Zm25-.51-2-1.79q.27-.3.53-.62l2.09,1.68Q121.24,151.32,120.92,151.67Zm-26.86-1.73q-.28-.4-.53-.81l2.28-1.4q.21.35.44.68Zm28.61-.58-2.26-1.44q.22-.34.42-.7l2.34,1.3C123,148.82,122.84,149.1,122.67,149.37Zm-30.05-1.94q-.2-.44-.38-.89l2.49-1q.15.38.32.75Zm31.4-.64-2.47-1q.16-.38.29-.76l2.52.89Q124.2,146.35,124,146.79Zm-32.39-2.08c-.08-.31-.16-.63-.23-.94l2.62-.55c.06.27.12.53.19.79ZM124.9,144l-2.61-.6q.09-.4.16-.8l2.64.45Q125,143.56,124.9,144Zm-33.8-2.17q0-.48-.07-1l2.67-.1c0,.27,0,.54.05.81Zm34.2-.7-2.67-.15q0-.41,0-.82v-.37l2.68-.06q0,.21,0,.43Q125.33,140.68,125.3,141.16Zm-31.57-2L91.06,139q0-.48.09-1l2.66.34Q93.76,138.74,93.73,139.15Zm28.78-.95q-.06-.41-.13-.8l2.63-.51q.09.47.16,1Zm-28.4-1.47-2.6-.64q.12-.47.26-.93l2.56.78Q94.21,136.34,94.11,136.74Zm27.87-.92q-.12-.39-.27-.77l2.5-1q.17.45.32.91Zm-27.09-1.4-2.45-1.07q.19-.45.41-.88l2.39,1.21Q95.06,134,94.89,134.42Zm26.15-.86q-.19-.36-.39-.71l2.3-1.36q.25.42.47.85Zm-25-1.29-2.24-1.47q.27-.4.55-.79l2.15,1.59Q96.28,131.93,96.06,132.27Zm23.69-.78q-.25-.33-.51-.64l2-1.73q.31.37.6.75Zm-22.18-1.15-2-1.82q.33-.35.68-.69l1.86,1.93Q97.85,130,97.57,130.34Zm20.54-.67q-.3-.28-.61-.54l1.72-2q.37.31.72.64Zm-18.73-1-1.63-2.13q.38-.29.78-.57l1.5,2.21Zm16.82-.55-.69-.43,1.36-2.31q.42.25.82.51Zm-14.76-.77L100.19,125q.43-.22.87-.43l1.11,2.43Zm12.62-.41-.76-.31.95-2.5.89.37Zm-10.37-.54-.83-2.55.93-.27.68,2.59Zm8.05-.27-.79-.18.51-2.63.95.21Zm-5.67-.29-.39-2.65,1-.11.23,2.67Zm3.26-.11-.82,0,.06-2.68,1,0Z"/><circle class="cls-22" cx="108.17" cy="140.2" r="15.1"/><path class="cls-23" d="M109.29,125.15l.22.66a18.62,18.62,0,0,0,.21,2.09l1.25-2.54A15.12,15.12,0,0,0,109.29,125.15Z"/><path class="cls-23" d="M119.23,129.94a15.09,15.09,0,0,1-23.55,18.73,15.09,15.09,0,1,0,23.55-18.73Z"/><circle class="cls-24" cx="108.17" cy="140.2" r="11.3"/><circle class="cls-25" cx="108.17" cy="140.2" r="3.43"/><circle class="cls-25" cx="111.67" cy="135.17" r="1.7"/><circle class="cls-25" cx="102.86" cy="145.55" r="1.7"/><path class="cls-25" d="M100.73,141.48a2.23,2.23,0,0,1-2.23-2.23,8.84,8.84,0,0,1,8.83-8.83,2.23,2.23,0,1,1,0,4.46,4.38,4.38,0,0,0-4.37,4.37A2.23,2.23,0,0,1,100.73,141.48Z"/><path class="cls-25" d="M109,150a2.23,2.23,0,1,1,0-4.46,4.38,4.38,0,0,0,4.37-4.37,2.23,2.23,0,1,1,4.46,0A8.84,8.84,0,0,1,109,150Z"/><path class="cls-22" d="M108.17,117.52l-3.9-.25a18.32,18.32,0,0,1,2.56,8.54h2.68a18.32,18.32,0,0,1,2.56-8.54Z"/><ellipse class="cls-22" cx="108.17" cy="117.27" rx="3.9" ry="1.02"/><ellipse class="cls-23" cx="108.17" cy="117.27" rx="2.42" ry="0.63"/><path class="cls-23" d="M108.17,162.87l3.9.25a18.32,18.32,0,0,1-2.56-8.54h-2.68a18.32,18.32,0,0,1-2.56,8.54Z"/><ellipse class="cls-22" cx="108.17" cy="163.13" rx="3.9" ry="1.02"/><ellipse class="cls-23" cx="108.17" cy="163.13" rx="2.42" ry="0.63"/><path class="cls-23" d="M130.85,140.2l.25-3.9a18.32,18.32,0,0,1-8.54,2.56v2.68a18.32,18.32,0,0,1,8.54,2.56Z"/><ellipse class="cls-22" cx="131.1" cy="140.2" rx="1.02" ry="3.9"/><ellipse class="cls-23" cx="131.1" cy="140.2" rx="0.63" ry="2.42"/><path class="cls-22" d="M85.5,140.2l-.25,3.9a18.32,18.32,0,0,1,8.54-2.56v-2.68a18.32,18.32,0,0,1-8.54-2.56Z"/><ellipse class="cls-22" cx="85.24" cy="140.2" rx="1.02" ry="3.9"/><ellipse class="cls-23" cx="85.24" cy="140.2" rx="0.63" ry="2.42"/><path class="cls-23" d="M119.76,130.53a16,16,0,0,0-1.95,2s1.18-.39,2.86-.78A15,15,0,0,0,119.76,130.53Z"/><path class="cls-22" d="M290.39,117.1l-3.28-3.74a23.33,23.33,0,0,1-5.38,10l1.2,1.2,1.2,1.2a23.33,23.33,0,0,1,10-5.38Z"/><ellipse class="cls-22" cx="290.62" cy="116.87" rx="1.29" ry="4.97" transform="translate(2.48 239.73) rotate(-45)"/><ellipse class="cls-23" cx="290.62" cy="116.87" rx="0.8" ry="3.08" transform="translate(2.48 239.73) rotate(-45)"/><path class="cls-22" d="M249.56,157.93l3.28,3.74a23.33,23.33,0,0,1,5.38-10l-1.2-1.2-1.2-1.2a23.33,23.33,0,0,1-10,5.38Z"/><ellipse class="cls-22" cx="249.33" cy="158.16" rx="1.29" ry="4.97" transform="translate(-38.81 222.63) rotate(-45)"/><ellipse class="cls-23" cx="249.33" cy="158.16" rx="0.8" ry="3.08" transform="translate(-38.81 222.63) rotate(-45)"/><path class="cls-23" d="M290.39,157.93l3.74-3.28a23.33,23.33,0,0,1-10-5.38l-1.2,1.2-1.2,1.2a23.33,23.33,0,0,1,5.38,10Z"/><ellipse class="cls-22" cx="290.62" cy="158.16" rx="4.97" ry="1.29" transform="translate(-26.71 251.82) rotate(-45)"/><ellipse class="cls-23" cx="290.62" cy="158.16" rx="3.08" ry="0.8" transform="translate(-26.71 251.82) rotate(-45)"/><path class="cls-22" d="M249.56,117.1l-3.74,3.28a23.33,23.33,0,0,1,10,5.38l1.2-1.2,1.2-1.2a23.33,23.33,0,0,1-5.38-10Z"/><ellipse class="cls-22" cx="249.33" cy="116.87" rx="4.97" ry="1.29" transform="translate(-9.61 210.53) rotate(-45)"/><ellipse class="cls-23" cx="249.33" cy="116.87" rx="3.08" ry="0.8" transform="translate(-9.61 210.54) rotate(-45)"/><path class="cls-22" d="M270,159.35h-.2l.07-3.41H270l.9,0,.16,3.4Zm-2.63-.16q-.62-.07-1.22-.18l.6-3.35q.51.09,1,.15Zm6.13-.12-.55-3.36,1-.2.73,3.33Q274.09,159,273.48,159.07Zm-9.75-.63q-.59-.18-1.17-.38l1.15-3.21q.49.18,1,.33Zm13.33-.27L276,155q.49-.17,1-.36l1.28,3.16Q277.65,158,277.06,158.18ZM260.3,157.1q-.55-.27-1.09-.58l1.69-3q.45.26.92.49Zm20.14-.41-1.64-3q.46-.25.9-.52l1.8,2.89Q281,156.39,280.44,156.69Zm-23.3-1.5q-.5-.36-1-.75l2.16-2.64q.4.33.82.64Zm26.38-.53L281.4,152c.27-.22.54-.44.8-.67l2.26,2.55Q284,154.27,283.52,154.65Zm-29.17-1.88q-.43-.44-.84-.91l2.57-2.24q.34.39.7.76Zm31.86-.64-2.54-2.28q.35-.39.68-.8l2.66,2.14Q286.62,151.67,286.21,152.13Zm-34.2-2.2q-.35-.51-.67-1l2.91-1.78q.27.44.57.87Zm36.43-.73-2.87-1.83q.28-.44.53-.89l3,1.66C288.87,148.49,288.65,148.85,288.43,149.19Zm-38.27-2.47q-.26-.56-.49-1.13l3.16-1.26q.19.48.41,1Zm40-.81L287,144.6q.2-.48.37-1l3.21,1.13Q290.38,145.35,290.14,145.91Zm-41.24-2.65c-.11-.4-.21-.8-.29-1.2l3.33-.7c.07.34.15.67.24,1Zm42.37-.86-3.32-.76q.11-.5.2-1l3.36.57Q291.41,141.8,291.27,142.4Zm-43-2.77q-.06-.61-.08-1.23l3.41-.13c0,.35,0,.69.07,1Zm43.55-.89-3.4-.19q0-.52,0-1V137l3.41-.08q0,.27,0,.54Q291.82,138.13,291.78,138.74Zm-40.19-2.55-3.4-.24q0-.61.12-1.22l3.38.43C251.65,135.49,251.61,135.84,251.59,136.19ZM288.24,135q-.07-.52-.17-1l3.34-.65q.12.6.2,1.21Zm-36.16-1.87-3.31-.81q.15-.6.33-1.19l3.26,1Q252.19,132.6,252.07,133.11Zm35.48-1.17q-.16-.5-.34-1l3.18-1.21q.22.57.41,1.16Zm-34.49-1.78-3.12-1.36q.25-.57.52-1.12l3,1.54Q253.28,129.68,253.07,130.16Zm33.3-1.1q-.24-.46-.5-.91l2.93-1.73q.31.53.6,1.08Zm-31.82-1.65-2.85-1.87q.34-.52.7-1l2.74,2Q254.84,127,254.55,127.42Zm30.16-1q-.31-.42-.65-.81l2.6-2.2q.4.47.77,1ZM256.47,125l-2.5-2.32q.42-.45.86-.88l2.36,2.45Q256.83,124.58,256.47,125Zm26.16-.86q-.38-.36-.78-.69l2.2-2.61q.47.4.92.82Zm-23.85-1.24-2.07-2.71q.49-.37,1-.72l1.91,2.82Q259.19,122.55,258.78,122.87Zm21.41-.7q-.43-.29-.88-.55l1.73-2.94q.53.31,1,.66Zm-18.79-1-1.59-3q.54-.29,1.1-.54l1.42,3.1Q261.86,120.95,261.4,121.19Zm16.06-.53q-.48-.21-1-.4l1.21-3.19q.58.22,1.14.47Zm-13.2-.68-1.05-3.24q.58-.19,1.18-.35l.87,3.3Q264.76,119.82,264.26,120Zm10.25-.34q-.5-.13-1-.23l.65-3.35q.61.12,1.2.27Zm-7.22-.37-.49-3.37q.61-.09,1.22-.14l.3,3.39Q267.81,119.2,267.3,119.27Zm4.15-.14-1-.05.08-3.41q.62,0,1.22.06Z"/><circle class="cls-22" cx="269.98" cy="137.51" r="19.22"/><path class="cls-23" d="M271.4,118.36l.28.83a23.71,23.71,0,0,0,.27,2.67l1.59-3.23A19.28,19.28,0,0,0,271.4,118.36Z"/><path class="cls-23" d="M284.05,124.45a19.21,19.21,0,0,1-30,23.85,19.22,19.22,0,1,0,30-23.85Z"/><circle class="cls-24" cx="269.98" cy="137.51" r="14.39"/><circle class="cls-25" cx="269.98" cy="137.51" r="4.37"/><circle class="cls-25" cx="274.43" cy="131.11" r="2.16"/><circle class="cls-25" cx="263.21" cy="144.34" r="2.16"/><path class="cls-25" d="M260.5,139.15a2.84,2.84,0,0,1-2.84-2.84,11.26,11.26,0,0,1,11.25-11.25,2.84,2.84,0,0,1,0,5.68,5.57,5.57,0,0,0-5.57,5.57A2.84,2.84,0,0,1,260.5,139.15Z"/><path class="cls-25" d="M271,150a2.84,2.84,0,1,1,0-5.68,5.57,5.57,0,0,0,5.57-5.57,2.84,2.84,0,1,1,5.68,0A11.26,11.26,0,0,1,271,150Z"/><path class="cls-22" d="M270,108.64l-5-.32a23.33,23.33,0,0,1,3.27,10.88h3.41a23.33,23.33,0,0,1,3.27-10.88Z"/><ellipse class="cls-22" cx="269.98" cy="108.32" rx="4.97" ry="1.29"/><ellipse class="cls-23" cx="269.98" cy="108.32" rx="3.08" ry="0.8"/><path class="cls-23" d="M270,166.38l5,.32a23.33,23.33,0,0,1-3.27-10.88h-3.41A23.33,23.33,0,0,1,265,166.71Z"/><ellipse class="cls-22" cx="269.98" cy="166.71" rx="4.97" ry="1.29"/><ellipse class="cls-23" cx="269.98" cy="166.71" rx="3.08" ry="0.8"/><path class="cls-23" d="M298.85,137.51l.32-5a23.33,23.33,0,0,1-10.88,3.27v3.41a23.33,23.33,0,0,1,10.88,3.27Z"/><ellipse class="cls-22" cx="299.17" cy="137.51" rx="1.29" ry="4.97"/><ellipse class="cls-23" cx="299.17" cy="137.51" rx="0.8" ry="3.08"/><path class="cls-22" d="M241.1,137.51l-.32,5a23.33,23.33,0,0,1,10.88-3.27v-3.41a23.33,23.33,0,0,1-10.88-3.27Z"/><ellipse class="cls-22" cx="240.78" cy="137.51" rx="1.29" ry="4.97"/><ellipse class="cls-23" cx="240.78" cy="137.51" rx="0.8" ry="3.08"/><path class="cls-23" d="M284.73,125.2a20.35,20.35,0,0,0-2.48,2.52s1.51-.5,3.64-1A19.08,19.08,0,0,0,284.73,125.2Z"/><path class="cls-22" d="M269.3,68l-1.78-2a12.65,12.65,0,0,1-2.92,5.42l.65.65.65.65a12.65,12.65,0,0,1,5.42-2.92Z"/><ellipse class="cls-22" cx="269.43" cy="67.87" rx="0.7" ry="2.7" transform="translate(30.92 210.39) rotate(-45)"/><ellipse class="cls-23" cx="269.43" cy="67.87" rx="0.43" ry="1.67" transform="translate(30.92 210.39) rotate(-45)"/><path class="cls-22" d="M247.15,90.14l1.78,2a12.65,12.65,0,0,1,2.92-5.42l-.65-.65-.65-.65a12.65,12.65,0,0,1-5.42,2.92Z"/><ellipse class="cls-22" cx="247.03" cy="90.26" rx="0.7" ry="2.7" transform="translate(8.53 201.11) rotate(-45)"/><ellipse class="cls-23" cx="247.03" cy="90.26" rx="0.43" ry="1.67" transform="translate(8.53 201.11) rotate(-45)"/><path class="cls-23" d="M269.3,90.14l2-1.78a12.65,12.65,0,0,1-5.42-2.92l-.65.65-.65.65a12.65,12.65,0,0,1,2.92,5.42Z"/><ellipse class="cls-22" cx="269.43" cy="90.26" rx="2.7" ry="0.7" transform="translate(15.09 216.95) rotate(-45)"/><ellipse class="cls-23" cx="269.43" cy="90.26" rx="1.67" ry="0.43" transform="translate(15.09 216.95) rotate(-45)"/><path class="cls-22" d="M247.15,68l-2,1.78a12.65,12.65,0,0,1,5.42,2.92l.65-.65.65-.65A12.65,12.65,0,0,1,248.94,66Z"/><ellipse class="cls-22" cx="247.03" cy="67.87" rx="2.7" ry="0.7" transform="translate(24.37 194.56) rotate(-45)"/><ellipse class="cls-23" cx="247.03" cy="67.87" rx="1.67" ry="0.43" transform="translate(24.36 194.55) rotate(-45)"/><path class="cls-22" d="M258.23,90.91h-.11l0-1.85h.55l.09,1.85Zm-1.43-.08-.66-.1.33-1.82L257,89Zm3.33-.07-.3-1.82.55-.11.4,1.8Zm-5.29-.34-.63-.21.62-1.74.54.18Zm7.23-.15-.6-1.75.53-.2.7,1.71ZM253,89.69l-.59-.31.92-1.61.5.26Zm10.93-.22L263,87.85l.49-.28,1,1.57Zm-12.64-.82-.53-.41,1.17-1.43.45.34Zm14.31-.29-1.15-1.45.43-.36,1.23,1.38Zm-15.82-1-.45-.49,1.39-1.21.38.41ZM267,87l-1.38-1.23.37-.43,1.44,1.16ZM248.48,85.8q-.19-.27-.36-.56l1.58-1,.31.47Zm19.76-.4-1.56-1q.15-.24.29-.48l1.61.9C268.47,85,268.36,85.21,268.24,85.4Zm-20.76-1.34q-.14-.3-.26-.61l1.72-.68q.1.26.22.52Zm21.68-.44-1.71-.71q.11-.26.2-.53l1.74.61Q269.29,83.31,269.17,83.62Zm-22.37-1.44c-.06-.21-.11-.43-.16-.65l1.81-.38c0,.18.08.37.13.55Zm23-.47L268,81.3q.06-.27.11-.55l1.82.31Q269.85,81.39,269.78,81.71Zm-23.34-1.5q0-.33,0-.67l1.85-.07c0,.19,0,.37,0,.56Zm23.62-.48-1.85-.1q0-.28,0-.56v-.25l1.85,0q0,.15,0,.29Q270.07,79.4,270.06,79.73Zm-21.8-1.39-1.84-.13q0-.33.07-.66l1.83.23Q248.27,78.06,248.25,78.35Zm19.88-.66q0-.28-.09-.56l1.81-.35q.06.33.11.66Zm-19.62-1-1.8-.44q.08-.33.18-.64l1.77.54Q248.58,76.4,248.52,76.68ZM267.76,76q-.08-.27-.19-.53l1.73-.66q.12.31.22.63Zm-18.71-1-1.69-.74q.13-.31.28-.61l1.65.83Q249.17,74.82,249.06,75.08Zm18.06-.59q-.13-.25-.27-.49l1.59-.94q.17.29.32.58Zm-17.26-.89-1.55-1q.18-.28.38-.55l1.49,1.1Zm16.36-.54-.35-.44,1.41-1.19.42.52Zm-15.32-.79L249.55,71l.47-.48,1.28,1.33Zm14.19-.47-.42-.38L265.86,70l.5.44Zm-12.94-.67L251,69.65l.54-.39,1,1.53Zm11.61-.38-.48-.3.94-1.59.57.36Zm-10.19-.53-.86-1.64.6-.29.77,1.68Zm8.71-.29-.52-.21.66-1.73.62.25Zm-7.16-.37-.57-1.76.64-.19.47,1.79Zm5.56-.18-.55-.12.35-1.81.65.15Zm-3.92-.2-.27-1.83.66-.08.16,1.84ZM259,69.1l-.57,0,0-1.85.66,0Z"/><circle class="cls-22" cx="258.23" cy="79.07" r="10.43"/><path class="cls-23" d="M259,68.68l.15.45a12.87,12.87,0,0,0,.14,1.45l.86-1.75A10.46,10.46,0,0,0,259,68.68Z"/><path class="cls-23" d="M265.86,72A10.42,10.42,0,0,1,249.6,84.92,10.42,10.42,0,1,0,265.86,72Z"/><circle class="cls-24" cx="258.23" cy="79.07" r="7.81"/><circle class="cls-25" cx="258.23" cy="79.07" r="2.37"/><circle class="cls-25" cx="260.64" cy="75.59" r="1.17"/><circle class="cls-25" cx="254.56" cy="82.77" r="1.17"/><path class="cls-25" d="M253.09,80a1.54,1.54,0,0,1-1.54-1.54,6.11,6.11,0,0,1,6.1-6.1,1.54,1.54,0,0,1,0,3.08,3,3,0,0,0-3,3A1.54,1.54,0,0,1,253.09,80Z"/><path class="cls-25" d="M258.81,85.82a1.54,1.54,0,0,1,0-3.08,3,3,0,0,0,3-3,1.54,1.54,0,0,1,3.08,0A6.11,6.11,0,0,1,258.81,85.82Z"/><path class="cls-22" d="M258.23,63.4l-2.7-.18a12.65,12.65,0,0,1,1.77,5.9h1.85a12.65,12.65,0,0,1,1.77-5.9Z"/><ellipse class="cls-22" cx="258.23" cy="63.23" rx="2.7" ry="0.7"/><ellipse class="cls-23" cx="258.23" cy="63.23" rx="1.67" ry="0.43"/><path class="cls-23" d="M258.23,94.73l2.7.18a12.65,12.65,0,0,1-1.77-5.9H257.3a12.65,12.65,0,0,1-1.77,5.9Z"/><ellipse class="cls-22" cx="258.23" cy="94.9" rx="2.7" ry="0.7"/><ellipse class="cls-23" cx="258.23" cy="94.9" rx="1.67" ry="0.43"/><path class="cls-23" d="M273.89,79.07l.18-2.7a12.65,12.65,0,0,1-5.9,1.77V80a12.65,12.65,0,0,1,5.9,1.77Z"/><ellipse class="cls-22" cx="274.06" cy="79.07" rx="0.7" ry="2.7"/><ellipse class="cls-23" cx="274.06" cy="79.07" rx="0.43" ry="1.67"/><path class="cls-22" d="M242.57,79.07l-.18,2.7a12.65,12.65,0,0,1,5.9-1.77V78.14a12.65,12.65,0,0,1-5.9-1.77Z"/><ellipse class="cls-22" cx="242.39" cy="79.07" rx="0.7" ry="2.7"/><ellipse class="cls-23" cx="242.39" cy="79.07" rx="0.43" ry="1.67"/><path class="cls-23" d="M266.23,72.39a11,11,0,0,0-1.35,1.37s.82-.27,2-.54A10.34,10.34,0,0,0,266.23,72.39Z"/><circle class="cls-26" cx="68.28" cy="230.9" r="24.57"/><path class="cls-27" d="M75.51,208.72H61.06v-7a1,1,0,0,1,1-1h12.5a1,1,0,0,1,1,1Z"/><rect class="cls-27" x="61.06" y="208.72" width="14.45" height="1.48"/><rect class="cls-28" x="61.06" y="208.72" width="14.45" height="0.32"/><rect class="cls-29" x="61.97" y="208.72" width="0.42" height="0.32"/><rect class="cls-29" x="65.02" y="208.72" width="0.42" height="0.32"/><rect class="cls-29" x="68.07" y="208.72" width="0.42" height="0.32"/><rect class="cls-29" x="71.12" y="208.72" width="0.42" height="0.32"/><rect class="cls-29" x="74.17" y="208.72" width="0.42" height="0.32"/><path class="cls-27" d="M79.26,214l-4.47-2.5V210.2h-13v1.26L57.31,214a3.64,3.64,0,0,0-1.86,3.18v27.2a1.92,1.92,0,0,0,1.92,1.92H79.19a1.92,1.92,0,0,0,1.92-1.92v-27.2A3.64,3.64,0,0,0,79.26,214Z"/><rect class="cls-30" x="61.77" y="210.2" width="13.02" height="1.26"/><rect class="cls-22" x="55.44" y="221.36" width="25.67" height="16.69"/><rect class="cls-19" x="55.44" y="221.36" width="25.67" height="4.78"/><circle class="cls-22" cx="77.84" cy="240.42" r="1.23"/><rect class="cls-27" x="58.26" y="228.69" width="10.76" height="1.66"/><rect class="cls-27" x="58.26" y="231.62" width="10.76" height="1.66"/><polyline class="cls-31" points="69.66 197.3 77.63 189.33 117.22 189.33"/><circle class="cls-26" cx="84.23" cy="72.31" r="20.3"/><path class="cls-27" d="M95,70.61a6.45,6.45,0,0,0,0-9.09h0a6.45,6.45,0,0,0-9.09,0l-5.3,5.3,9.09,9.09Z"/><path class="cls-27" d="M73.43,74a6.45,6.45,0,0,0,0,9.09h0a6.45,6.45,0,0,0,9.09,0l5.3-5.3-9.09-9.09Z"/><rect class="cls-22" x="82.88" y="65.88" width="2.69" height="12.86" transform="translate(-26.46 80.74) rotate(-45)"/><polyline class="cls-31" points="86.96 95.6 93.42 102.06 132.12 102.06"/><circle class="cls-26" cx="303.36" cy="241.78" r="24.57"/><polygon class="cls-27" points="276.11 267.53 276.37 266.05 285.97 256.44 286.58 257.06 276.11 267.53"/><path class="cls-19" d="M286.63,253.12h0a20.2,20.2,0,0,0-3.95,5.59l-.09.19,1.54,1.54.19-.09a20.17,20.17,0,0,0,5.59-3.95h0Z"/><rect class="cls-27" x="293.82" y="227.87" width="11.16" height="31.5" transform="translate(259.96 -140.36) rotate(45)"/><rect class="cls-26" x="286.38" y="244.11" width="14.7" height="10.38" transform="translate(-90.25 280.72) rotate(-45)"/><rect class="cls-27" x="305.66" y="217.73" width="8.25" height="31.03" transform="translate(255.66 -150.74) rotate(45)"/><path class="cls-27" d="M325.56,227.08,316,217.47a1,1,0,0,1,0-1.4h0a1,1,0,0,1,1.4,0l9.61,9.61a1,1,0,0,1,0,1.4h0A1,1,0,0,1,325.56,227.08Z"/><rect class="cls-19" x="294.8" y="241.07" width="10.38" height="3.94" transform="translate(259.72 -140.94) rotate(45)"/><rect class="cls-19" x="284.1" y="254.49" width="7.02" height="1.86" transform="translate(264.85 -128.56) rotate(45)"/><path class="cls-27" d="M318.07,240l-15-15a1,1,0,0,1,0-1.4h0a1,1,0,0,1,1.4,0l15,15a1,1,0,0,1,0,1.4h0A1,1,0,0,1,318.07,240Z"/><rect class="cls-27" x="294.12" y="245.92" width="0.25" height="6.96" transform="translate(-90.17 281.11) rotate(-45)"/><rect class="cls-27" x="290.96" y="253.53" width="0.26" height="3.27" transform="translate(-95.17 280.57) rotate(-45)"/><rect class="cls-27" x="292.08" y="252.42" width="0.26" height="3.27" transform="translate(-94.06 281.04) rotate(-45)"/><rect class="cls-27" x="293.19" y="251.3" width="0.26" height="3.27" transform="translate(-92.94 281.49) rotate(-45)"/><rect class="cls-27" x="294.31" y="250.19" width="0.26" height="3.27" transform="translate(-91.83 281.95) rotate(-45)"/><rect class="cls-27" x="299.69" y="240.34" width="0.26" height="6.96" transform="translate(-84.59 283.42) rotate(-45)"/><rect class="cls-27" x="296.54" y="247.96" width="0.26" height="3.27" transform="translate(-89.59 282.88) rotate(-45)"/><rect class="cls-27" x="297.65" y="246.84" width="0.26" height="3.27" transform="translate(-88.48 283.35) rotate(-45)"/><rect class="cls-27" x="298.77" y="245.72" width="0.25" height="3.27" transform="translate(-87.36 283.81) rotate(-45)"/><rect class="cls-27" x="299.89" y="244.61" width="0.26" height="3.27" transform="translate(-86.25 284.26) rotate(-45)"/><rect class="cls-27" x="305.27" y="234.76" width="0.26" height="6.96" transform="translate(-79.01 285.73) rotate(-45)"/><rect class="cls-27" x="302.12" y="242.38" width="0.26" height="3.27" transform="translate(-84.02 285.19) rotate(-45)"/><rect class="cls-27" x="303.23" y="241.26" width="0.26" height="3.27" transform="translate(-82.9 285.65) rotate(-45)"/><rect class="cls-27" x="304.35" y="240.14" width="0.25" height="3.27" transform="translate(-81.78 286.11) rotate(-45)"/><rect class="cls-27" x="305.46" y="239.03" width="0.26" height="3.27" transform="translate(-80.67 286.58) rotate(-45)"/><polyline class="cls-31" points="303.49 213.75 293.71 203.97 263.64 203.97"/><path class="cls-10" d="M72.64,153.94a7.62,7.62,0,0,0-5.4-2.22c-6.28,0-9,5.82-9,5.82s-2.7-5.82-9-5.82a7.59,7.59,0,0,0-7.62,7.62c0,10.3,16.61,19.76,16.61,19.76s16.61-9.46,16.61-19.76A7.61,7.61,0,0,0,72.64,153.94Z"/><polyline class="cls-31" points="75.51 169 81.48 174.97 123.42 174.97"/></g></g></svg>