<svg xmlns="http://www.w3.org/2000/svg" xmlns:xlink="http://www.w3.org/1999/xlink" viewBox="0 0 77.98 116.62"><defs><style>.cls-1{fill:none;}.cls-13,.cls-2{fill:#ffb001;}.cls-3{clip-path:url(#clip-path);}.cls-4,.cls-6{fill:#e7baa8;}.cls-10,.cls-11,.cls-13,.cls-14,.cls-15,.cls-16,.cls-17,.cls-19,.cls-4,.cls-5,.cls-7,.cls-8,.cls-9{fill-rule:evenodd;}.cls-21,.cls-5{fill:#d68982;}.cls-20,.cls-7{fill:#6c0d0f;}.cls-8{fill:#59080c;}.cls-9{fill:#c62026;}.cls-10,.cls-12{fill:#b21924;}.cls-11{fill:#e6b5a3;}.cls-14{fill:#ec6000;}.cls-15{fill:#f0d3c8;}.cls-16{fill:#8e1a20;}.cls-17{fill:#fff;}.cls-18,.cls-19{fill:#f4dcb1;}</style><clipPath id="clip-path"><circle class="cls-1" cx="34.46" cy="34.46" r="34.46"/></clipPath></defs><title>Asset 7</title><g id="Layer_2" data-name="Layer 2"><g id="OBJECTS"><circle class="cls-2" cx="34.46" cy="34.46" r="34.46"/><g class="cls-3"><path class="cls-4" d="M74,102.24S66.36,76,63.75,71.93s-8.07-6.13-11-.19,16.11,32.88,16.11,32.88Z"/><path class="cls-5" d="M54.58,71a7.33,7.33,0,0,1,2.32-2.86c-1.55.27-3,1.37-4.16,3.63-2.94,5.93,16.11,32.88,16.11,32.88l1.8-.83C69.64,102.36,51.71,76.74,54.58,71Z"/><path class="cls-6" d="M68,99.24a5.09,5.09,0,0,0-1.23,2,10.07,10.07,0,0,0-.53,3.77c.16,1.51.89,5.91,1.91,6.66s.68-3.11.63-3.9a3,3,0,0,1,.2-1.35s1.45,8.77,2.32,9.27.55-4.58.46-5.83c0,0,1.46,6.55,2.11,6.69,1.31.29-.1-7-.1-7s1.51,5.45,2.4,5.17-.69-6.12-.69-6.12,1.5,3.41,2.38,3.52-1.73-7.29-2.26-8.38a45.58,45.58,0,0,0-2.67-5.43C72.23,97.47,69.53,97.93,68,99.24Z"/><path class="cls-7" d="M17.45,15.62s-7.64,11.29.83,27.11c4.44,8.3,3.11-3.15,1.39,1.34s11.43,7,11.43,7H42.62l5-3s16-21.19,3.81-36.18C46.17,5.45,40.31,7,40.31,7,24.44-3,17.45,15.62,17.45,15.62Z"/><path class="cls-8" d="M52.83,26.13c-.82.79.31,5.35-1.64,8.47s-5,5-5.91,2.45,2.23-7.77,3.51-10.48-1.12-5-3.58-6.14S41.42,14,41.42,14c2,2.28,5.95,3.28,4.2,1.76S41,10.05,44.14,11.43s10.38,11.81,8.95,8.08S43.17,4.07,39.28,9,24.45,14.24,28.9,15.11s10.28-4.65,8.39-1.33-9.72,5.83-13.55,7-2.4,5.16-1.28,9.89S20,38.12,18.11,35.51,17,26.46,15.76,29.33c-.49,1.09-.42,3.95-.14,7.08a35.61,35.61,0,0,0,2.67,6.33,17.53,17.53,0,0,0,1.24,2,2.26,2.26,0,0,1,.15-.7c1.53-4,2.76,4.68-.15.7a3.1,3.1,0,0,0,1.41,2.45L27.88,47c1.74-.05,19.43-.82,19.94-.82A7.59,7.59,0,0,0,49.07,46a51.32,51.32,0,0,0,4.76-9.57C54.82,30.21,53.65,25.34,52.83,26.13Z"/><path class="cls-9" d="M18.43,40.68S1.12,73.87,3.48,76.87c0,0,3.35,7.69,11.55,8.69S18.43,40.68,18.43,40.68Z"/><path class="cls-10" d="M9.47,67.46s-4,3.52-4,7a8,8,0,0,0,7.09,7.79c4.45.56,8.28-3.3,7.42-8.89S9.47,67.46,9.47,67.46Z"/><path class="cls-11" d="M35.07,23.94h0a4.89,4.89,0,0,1,4.87,4.87v9.33A4.89,4.89,0,0,1,35.07,43h0a4.89,4.89,0,0,1-4.87-4.87V28.82A4.89,4.89,0,0,1,35.07,23.94Z"/><path class="cls-9" d="M51.84,40.68s17.3,33.18,14.95,36.19c0,0-3.35,7.69-11.55,8.69S51.84,40.68,51.84,40.68Z"/><path class="cls-10" d="M52.07,65.83l-1.61,2.69c.15,9.4,1.29,17.46,4.78,17A13.64,13.64,0,0,0,57.89,85Z"/><path class="cls-9" d="M54.5,83.61C54.37,79.42,52,66.23,52,66.23c1.35-5.73-.14-25.54-.14-25.55-3.51-.71-6.76-1.2-8.34-1.77s-2.33-.83-2.72-.4a7.41,7.41,0,0,1-5.65,3,7.41,7.41,0,0,1-5.65-3c-.39-.43-1.14-.17-2.72.4S21.94,40,18.43,40.68c0,0-1.49,19.82-.14,25.55,0,0-2.39,13.19-2.51,17.39s-3.66,10.94-3.22,11.76c0,0,8.27,5.86,22.59,5.43,14.32.43,22.59-5.43,22.59-5.43C58.16,94.56,54.63,87.81,54.5,83.61Z"/><path class="cls-12" d="M49.08,67.43l3.46-11h0A50.28,50.28,0,0,1,52,66.23l.21,1.2Z"/><path class="cls-10" d="M34,39.74a31,31,0,0,1,4.47,10.53c.92,5.37.27,9.92.67,10.38s7.15-.51,8.79-2.76S42.66,41.22,40,38.57,32.8,37.82,34,39.74Z"/><path class="cls-10" d="M18.06,91.3c0-1.12,11.23-39,11.67-40.21s1.77-7.81,1.77-7.81l-7.71,5S19.29,59,18.57,60.31c-.09.17-.37.59-.78,1.19a27.42,27.42,0,0,0,.5,4.72S15.9,79.42,15.77,83.61s-3.66,10.94-3.22,11.76a31.24,31.24,0,0,0,9.05,3.87C20,97.58,18.06,92.43,18.06,91.3Z"/><path class="cls-10" d="M35.6,45.42C43,45,43,40.09,43,40.09s-.24-.7-.58-1.55c-.87-.28-1.35-.34-1.64,0a7.41,7.41,0,0,1-5.65,3,7.41,7.41,0,0,1-5.65-3c-.39-.43-1.14-.17-2.72.4a14.61,14.61,0,0,1-1.57.44h0C25.88,42.18,28.24,45.88,35.6,45.42Z"/><path class="cls-13" d="M34.8,38.51A31,31,0,0,1,39.27,49c.92,5.37.27,9.92.67,10.38s7.15-.51,8.79-2.76S43.48,40,40.81,37.34,33.62,36.59,34.8,38.51Z"/><path class="cls-14" d="M40.9,59.43c-.4-.46.25-5-.67-10.38a31,31,0,0,0-4.47-10.53c-.7-1.14.61-2.27,2.34-2.46-2.16-.22-4.12,1.12-3.3,2.46A31,31,0,0,1,39.27,49c.92,5.37.27,9.92.67,10.38a2.21,2.21,0,0,0,1.2.09A.44.44,0,0,1,40.9,59.43Z"/><path class="cls-14" d="M43,40.39H38.4l-1.92,1a32.76,32.76,0,0,1,1.68,3.72l.39-.11C42.74,43.73,43,40.39,43,40.39Z"/><path class="cls-13" d="M42,36.71a3.7,3.7,0,0,0-.85-2.61l-6.12,1.42L28.95,34.1a3.7,3.7,0,0,0-.85,2.61,9.09,9.09,0,0,0-1,3.37c0,1.38,3,4,7.94,4s7.9-2.61,7.94-4A9.09,9.09,0,0,0,42,36.71Z"/><path class="cls-14" d="M41.33,34.3l-.15-.2-6.12,1.42L28.95,34.1a4,4,0,0,0-.69,1.26c1.36,1,4.13,2.69,7,2.42A8.29,8.29,0,0,0,41.33,34.3Z"/><path class="cls-4" d="M35.07,37C29.6,37,25,30.29,25,25V17.88a10.06,10.06,0,0,1,10-10h0a10.06,10.06,0,0,1,10,10v6.93C45.1,30.65,41.12,37,35.07,37Z"/><path class="cls-5" d="M45.1,17.88A10,10,0,0,0,43.21,12a8.74,8.74,0,0,0-2,.22c-5.62,1.2-5.42-.24-9.47,2.22s-5.51,3.75-5.7,5-1,4.63-1,4.63,7.7-1.85,11.61-4.87,4.29-3.69,4.29-3.69,1.22,6.78,4.17,9.33v-7Z"/><path class="cls-15" d="M34.8,22.75s-.26,2.86-1.28,3.65,0,1.07,1.28.38S36.13,24.08,34.8,22.75Z"/><path class="cls-7" d="M47.56,20.8l-.92,2.31S45.1,23,45.1,24.85A27.19,27.19,0,0,1,41.42,14,38.91,38.91,0,0,1,25,24.08s-.51-1.65-1.55-1.09c0,0-1.42-8.24.82-11.68S29.25,4.42,34,4.86,48,9.51,47.56,20.8Z"/><path class="cls-8" d="M46.63,23.11l.57-1.43a10.1,10.1,0,0,0-2-1.25C42.76,19.25,41.42,14,41.42,14A27.19,27.19,0,0,0,45.1,24.85C45.1,23,46.63,23.11,46.63,23.11Z"/><path class="cls-8" d="M41.42,14c2,2.28,5.95,3.28,4.2,1.76S41,10.05,44.14,11.43a7.05,7.05,0,0,1,1.65,1.15A14.29,14.29,0,0,0,41.54,7.8,2.84,2.84,0,0,0,39.28,9c-3.89,4.91-14.83,5.27-10.38,6.14s10.28-4.65,8.39-1.33-9.72,5.83-13.55,7a4.94,4.94,0,0,0-.52.19c.12,1.21.26,2,.26,2,1-.56,1.55,1.09,1.55,1.09A38.91,38.91,0,0,0,41.42,14Z"/><path class="cls-16" d="M28,20.69a.42.42,0,0,0,.54.65,2.75,2.75,0,0,1,2.44-.5.42.42,0,0,0,.25-.81A3.64,3.64,0,0,0,28,20.69Z"/><path class="cls-14" d="M28.26,40.68a4.13,4.13,0,0,1,.43-2s.95,1.18,5.92,1.07,7.2-3,5.11-1.84a13.35,13.35,0,0,1-8.48.82,6.94,6.94,0,0,1-3.14-2,9.09,9.09,0,0,0-1,3.37c0,1.34,2.85,3.81,7.47,4C32.44,43.86,28.37,41.55,28.26,40.68Z"/><path class="cls-17" d="M35.07,25.75a50.24,50.24,0,0,0-9.52,1,.92.92,0,0,0-.75,1.1c2,8.53,9.17,9.59,10.15,9.7h.23c1-.11,8.12-1.17,10.15-9.7a.92.92,0,0,0-.75-1.1A50.24,50.24,0,0,0,35.07,25.75Z"/><path class="cls-18" d="M34.63,35.87c.11-.32,3-3,2.49-3.73S33.52,33.72,33,34.37a14.74,14.74,0,0,0-.79,1.31l.36-1.95c.06-.34,2.32-3.37,1.76-4s-3.46,3-3.73,3.56a15.91,15.91,0,0,0-.7,2.35A12.11,12.11,0,0,0,34,37.34C34.28,36.73,34.58,36,34.63,35.87Z"/><path class="cls-18" d="M34.17,37.38c.37.08.64.11.79.13h.23a11.21,11.21,0,0,0,3-.84C37.71,36.14,35.25,36.93,34.17,37.38Z"/><path class="cls-18" d="M29.91,35.58c0-.49.11-1.63.18-1.9s1.33-3.37.9-3.84-2.58,2.92-2.9,3.69c0,.08-.09.19-.17.34A11.5,11.5,0,0,0,29.91,35.58Z"/><path class="cls-19" d="M30.45,26c-2.15.21-3.89.52-4.9.73a.92.92,0,0,0-.75,1.1,13,13,0,0,0,3.45,6.42A31.39,31.39,0,0,1,27.36,29C27.39,27,30.37,26,30.45,26Z"/><ellipse class="cls-20" cx="30.05" cy="23.76" rx="0.96" ry="1.29"/><path class="cls-5" d="M28.14,23.13H32A2.81,2.81,0,0,0,28.14,23.13Z"/><path class="cls-7" d="M42.09,20.69a.42.42,0,0,1-.54.65,2.75,2.75,0,0,0-2.44-.5.42.42,0,0,1-.25-.81A3.64,3.64,0,0,1,42.09,20.69Z"/><ellipse class="cls-20" cx="40.08" cy="23.76" rx="0.96" ry="1.29"/><path class="cls-5" d="M42,23.13H38.18A2.81,2.81,0,0,1,42,23.13Z"/><path class="cls-21" d="M27.37,37s-1-4.59-2.46-4.6c-.82,0,.45,3.6,0,5.72-.39,1.86-.2,4.16.84,4.29S27.37,37,27.37,37Z"/><path class="cls-4" d="M24.63,43.56S9.33,66.2,7.87,70.8s.46,10.12,6.9,8.59S29.72,46,29.72,46Z"/><path class="cls-5" d="M29.72,46a2.05,2.05,0,0,0,.58-.27,4.79,4.79,0,0,0,1.21-1.23c-1.23,1.56-4,.88-4,.88L29,46.1S19.26,73.43,15,76.19a5.78,5.78,0,0,1-7.42-.62c.66,2.81,2.94,4.83,7.16,3.82C21.22,77.86,29.72,46,29.72,46Z"/><path class="cls-6" d="M24.54,43.16c.37,2.59,4.27,3.59,5.76,2.54,2.34-1.64,2.11-4.35,2.28-4.8a8.49,8.49,0,0,1,1.33-1.76c.15-.11,4-1.61,3.63-2.49s-4.21.56-4.61.84a23.55,23.55,0,0,0-1.84,1.89l1.69-1.09s1-2.21,1.09-2.53,3-3,2.49-3.73-3.61,1.59-4.08,2.23-1.48,2.6-1.48,2.6l.56-.56.49-2.68c.06-.34,2.32-3.37,1.76-4s-3.46,3-3.73,3.56a18.83,18.83,0,0,0-.75,2.55s.11-1.78.19-2.12,1.33-3.37.9-3.84-2.58,2.92-2.9,3.69S23.91,38.76,24.54,43.16Z"/></g></g></g></svg>